<svg xmlns="http://www.w3.org/2000/svg" data-bbox="0.011 -0.003 666.089 345.498" viewBox="0 0 666.11 345.49" data-type="ugc"><g><path d="M375.99 134.54c-1.86 0-3.74.13-5.66.37-1.92.25-3.62.8-5.1 1.67a9.585 9.585 0 0 0-3.52 3.52c-.87 1.49-1.3 3.47-1.3 5.94.25 7.55-.56 13.09-2.41 16.61-1.85 3.53-5.39 5.29-10.58 5.29s-8.75-1.7-10.67-5.1c-1.92-3.4-2.88-8.63-2.88-15.69V77.92c0-7.06.96-12.19 2.88-15.41 1.92-3.21 5.48-4.83 10.67-4.83h3.16c.98 0 2.38-.03 4.17-.09s4.3-.09 7.52-.09c7.92 0 15.22.49 21.9 1.48 6.68.99 12.44 2.97 17.26 5.94 4.83 2.97 8.6 7.12 11.32 12.44 2.72 5.32 4.08 12.31 4.08 20.97 0 13.12-3.4 22.43-10.21 27.93-6.8 5.51-17.01 8.26-30.63 8.26M360.4 97.77c0 2.48.1 4.64.28 6.49.18 1.86.65 3.47 1.39 4.83.74 1.37 1.89 2.38 3.44 3.06 1.54.68 3.74 1.02 6.59 1.02 5.94 0 10.61-1.39 14.01-4.18 3.4-2.78 5.1-6.53 5.1-11.23 0-5.69-1.67-10.21-5.01-13.55s-8.23-5.01-14.66-5.01c-2.85 0-5.02.4-6.5 1.2-1.49.81-2.57 1.92-3.25 3.34-.68 1.43-1.09 3.13-1.21 5.11-.12 1.98-.19 4.15-.19 6.5v2.41Z" fill="#1d1d1b"></path><path d="M455.25 88.88c3.84 0 7.64.4 11.42 1.2 3.77.81 7.08 2.14 9.93 3.99 2.84 1.85 5.17 4.3 6.96 7.33 1.79 3.04 2.69 6.84 2.69 11.42 0 5.07-.96 9.03-2.88 11.88-1.92 2.85-4.3 5.01-7.15 6.49-2.85 1.49-5.94 2.48-9.28 2.97-3.34.5-6.44.96-9.28 1.39-2.85.44-5.23 1.09-7.15 1.95-1.92.86-2.88 2.29-2.88 4.27 0 3.22 1.17 5.32 3.52 6.31 2.35.99 4.95 1.49 7.8 1.49 2.35 0 4.92-.43 7.7-1.3 2.78-.86 5.72-1.3 8.82-1.3 2.35 0 4.24.74 5.66 2.23s2.14 3.28 2.14 5.38c0 3.09-.99 5.51-2.97 7.24-1.98 1.73-4.43 3.06-7.33 3.99-2.91.93-6 1.52-9.28 1.76-3.28.25-6.28.37-9 .37-12 0-20.7-3.12-26.08-9.37-5.39-6.25-8.08-15.93-8.08-29.05 0-5.69.65-11.01 1.95-15.96 1.3-4.95 3.34-9.22 6.13-12.81 2.78-3.58 6.37-6.43 10.77-8.54 4.39-2.1 9.68-3.22 15.87-3.34m7.8 23.57c0-1.85-.69-3.49-2.04-4.92-1.37-1.42-3.1-2.13-5.2-2.13-2.72 0-5.1 1.11-7.15 3.34-2.04 2.23-3.06 4.76-3.06 7.61 0 1.73.43 3.13 1.3 4.18.86 1.05 2.16 1.58 3.9 1.58 1.24 0 2.6-.16 4.08-.47 1.48-.31 2.81-.84 3.99-1.58 1.17-.74 2.16-1.73 2.97-2.97.81-1.24 1.21-2.79 1.21-4.64" fill="#1d1d1b"></path><path d="M524.86 106.7c-.99 1.73-1.64 3.68-1.95 5.85-.31 2.17-.47 4.46-.47 6.87s.06 4.95.18 7.61.18 5.29.18 7.89.1 4.8.28 6.59c.18 1.79.62 3.28 1.3 4.45.68 1.18 1.7 2.14 3.06 2.88 1.36.74 3.15 1.3 5.39 1.67 1.98.37 3.96.96 5.94 1.77 1.98.81 2.97 2.38 2.97 4.73s-.62 4.02-1.86 5.39c-1.24 1.36-2.88 2.48-4.92 3.34-2.04.86-4.33 1.45-6.87 1.76-2.54.31-5.1.46-7.7.46-5.07 0-9.07-.84-11.97-2.51-2.91-1.67-5.1-3.9-6.59-6.68-1.48-2.78-2.41-6.03-2.78-9.74-.37-3.71-.56-7.67-.56-11.88v-19.68c0-3.59-.22-6.37-.65-8.35-.44-1.98-1.7-3.65-3.81-5.01-1.36-.99-2.63-2.32-3.81-3.99-1.18-1.67-1.45-3.37-.83-5.1.37-.99.89-1.67 1.58-2.04.68-.37 1.48-.81 2.41-1.3.93-.49 1.95-1.18 3.06-2.04 1.11-.87 2.23-2.29 3.34-4.27.99-1.61 1.85-3.12 2.6-4.54s1.64-2.66 2.69-3.72c1.05-1.05 2.29-1.85 3.71-2.41s3.37-.84 5.85-.84c2.72 0 4.64.87 5.75 2.6 1.11 1.73 1.98 3.71 2.6 5.94.37 2.48 1.08 4.21 2.14 5.2 1.05.99 2.25 1.64 3.62 1.95 1.36.31 2.88.47 4.55.47s3.31.18 4.92.56c1.11.25 2.01 1.05 2.69 2.41a9.419 9.419 0 0 1 1.02 4.27c0 2.23-.65 3.81-1.95 4.73-1.3.93-2.85 1.61-4.64 2.04-1.79.44-3.68.77-5.66 1.02s-3.59.81-4.83 1.67" fill="#1d1d1b"></path><path d="M378.03 247.34c1.11-1.61 2.29-3.71 3.53-6.31 1.24-2.6 2.44-5.54 3.62-8.82 1.18-3.28 2.32-6.62 3.44-10.02 1.11-3.4 2.13-6.71 3.06-9.93.93-3.21 1.76-6 2.51-8.35.74-2.72 1.55-5.66 2.41-8.82.87-3.16 2.01-6.06 3.43-8.73 1.42-2.66 3.31-4.86 5.66-6.59 2.35-1.73 5.44-2.53 9.28-2.41 2.72.25 4.98 1.08 6.78 2.5 1.79 1.43 2.69 3.81 2.69 7.15 0 1.73-.22 3.43-.65 5.1-.43 1.67-.9 3.25-1.39 4.73-3.96 12.01-7.89 23.98-11.79 35.92-3.9 11.95-7.89 23.79-11.97 35.55-1.24 3.96-2.48 7.21-3.72 9.74-1.24 2.54-2.75 4.52-4.54 5.94-1.8 1.43-3.96 2.41-6.5 2.97s-5.78.84-9.75.84c-3.59 0-6.62-.31-9.09-.93-2.48-.62-4.58-1.67-6.31-3.15-1.73-1.49-3.22-3.47-4.46-5.94-1.24-2.48-2.48-5.63-3.71-9.47-3.96-12-7.92-23.88-11.88-35.64-3.96-11.75-7.86-23.7-11.69-35.83-.62-1.49-1.15-3.06-1.58-4.73-.44-1.67-.65-3.37-.65-5.1 0-3.34.96-5.72 2.88-7.15 1.92-1.42 4.48-2.25 7.7-2.5 3.34.12 6.13 1.02 8.35 2.69 2.23 1.67 4.08 3.8 5.57 6.4 1.49 2.6 2.69 5.45 3.62 8.54.93 3.09 1.76 6.07 2.5 8.91.99 3.59 2.26 7.98 3.81 13.18 1.55 5.2 3.22 10.21 5.01 15.03 1.79 4.83 3.59 8.97 5.38 12.44 1.79 3.46 3.43 5.2 4.92 5.2h.37c.98 0 2.04-.81 3.15-2.41" fill="#1d1d1b"></path><path d="M461.19 208.91c6.19 0 11.23.62 15.13 1.85 3.9 1.24 6.96 3 9.19 5.29 2.23 2.29 3.74 5.07 4.55 8.35.8 3.28 1.21 7.03 1.21 11.23 0 3.59-.03 6.78-.09 9.56-.06 2.78-.09 5.29-.09 7.52 0 4.71.12 8.32.37 10.86.25 2.54.53 4.55.84 6.03.31 1.49.59 2.69.84 3.62.25.93.37 2.07.37 3.43 0 3.22-1.24 5.91-3.72 8.07-2.48 2.17-5.32 3.25-8.54 3.25-2.23-.24-4.15-.96-5.76-2.14-1.61-1.17-3.28-1.76-5.01-1.76s-3.43.19-5.1.56c-1.67.37-3.34.81-5.01 1.3s-3.37.93-5.1 1.3c-1.73.37-3.53.56-5.38.56-8.54 0-14.51-2.04-17.91-6.12-3.4-4.09-5.23-9.9-5.48-17.45 0-4.7.93-8.44 2.78-11.23 1.86-2.78 4.27-5.04 7.24-6.77 2.97-1.73 6.4-3.18 10.3-4.36 3.9-1.18 7.89-2.57 11.97-4.18 1.73-.25 3.19-1.02 4.36-2.32 1.17-1.3 1.76-2.75 1.76-4.36 0-1.85-.71-3.28-2.14-4.27-1.42-.99-2.88-1.48-4.36-1.48-1.98 0-3.81.25-5.48.74-1.67.5-3.28 1.02-4.82 1.58-1.55.56-3.06 1.05-4.55 1.48-1.48.44-3.03.65-4.64.65-2.48 0-4.45-.74-5.94-2.23-1.48-1.49-2.23-3.28-2.23-5.38 0-2.6 1.21-4.76 3.62-6.5 2.41-1.73 5.29-3.06 8.63-3.99 3.34-.93 6.71-1.61 10.12-2.04 3.4-.43 6.09-.65 8.07-.65m-8.16 48.07c-.62.62-1.05 1.43-1.3 2.41-.25.99-.37 2.04-.37 3.16 0 2.48.65 4.46 1.95 5.94 1.3 1.49 3.19 2.23 5.66 2.23s4.33-.74 5.57-2.23c1.24-1.49 1.86-4.21 1.86-8.17 0-2.35-.25-4.14-.74-5.38-.5-1.23-1.73-1.85-3.71-1.85-1.37 0-3.04.5-5.01 1.49-1.98.99-3.28 1.79-3.9 2.41" fill="#1d1d1b"></path><path d="M515.21 287.8c-2.48 0-4.52-.31-6.12-.93-1.61-.62-2.88-1.48-3.81-2.6-.93-1.11-1.61-2.42-2.04-3.9-.44-1.49-.65-3.03-.65-4.64V189.6c0-1.61.21-3.16.65-4.64.43-1.48 1.11-2.79 2.04-3.9.93-1.11 2.19-1.98 3.81-2.6 1.61-.62 3.65-.93 6.12-.93 4.95 0 8.23 1.21 9.84 3.62 1.61 2.41 2.47 5.23 2.6 8.44v86.13c-.13 3.22-.99 6.03-2.6 8.44-1.61 2.41-4.89 3.62-9.84 3.62" fill="#1d1d1b"></path><path d="M570.52 208.73c3.84 0 7.64.4 11.42 1.2 3.77.81 7.08 2.14 9.93 3.99 2.84 1.85 5.17 4.3 6.96 7.33 1.79 3.04 2.69 6.84 2.69 11.42 0 5.07-.96 9.03-2.88 11.88-1.92 2.85-4.3 5.01-7.15 6.49-2.85 1.49-5.94 2.48-9.28 2.97-3.34.5-6.44.96-9.28 1.39-2.85.44-5.23 1.09-7.15 1.95-1.92.86-2.88 2.29-2.88 4.27 0 3.22 1.17 5.32 3.52 6.31 2.35.99 4.95 1.49 7.8 1.49 2.35 0 4.92-.43 7.7-1.3 2.78-.86 5.72-1.3 8.82-1.3 2.35 0 4.24.74 5.66 2.23s2.13 3.28 2.13 5.38c0 3.09-.99 5.51-2.97 7.24-1.98 1.73-4.43 3.06-7.33 3.99-2.91.93-6 1.52-9.28 1.76-3.28.25-6.28.37-9 .37-12 0-20.7-3.12-26.08-9.37-5.39-6.25-8.08-15.93-8.08-29.05 0-5.69.65-11.01 1.95-15.96 1.3-4.95 3.34-9.22 6.13-12.81 2.78-3.58 6.37-6.43 10.77-8.54 4.39-2.1 9.68-3.22 15.87-3.34m7.8 23.57c0-1.85-.69-3.49-2.04-4.92-1.37-1.42-3.1-2.13-5.2-2.13-2.72 0-5.1 1.11-7.15 3.34-2.04 2.23-3.06 4.76-3.06 7.61 0 1.73.43 3.13 1.3 4.18.86 1.05 2.16 1.58 3.9 1.58 1.24 0 2.6-.16 4.08-.47 1.48-.31 2.81-.84 3.99-1.58 1.17-.74 2.16-1.73 2.97-2.97.81-1.24 1.21-2.79 1.21-4.64" fill="#1d1d1b"></path><path d="M638.64 208.73c2.35 0 4.8.18 7.33.56 2.53.37 4.89.99 7.05 1.85 2.16.86 3.93 2.01 5.29 3.43 1.36 1.42 2.04 3.25 2.04 5.48 0 2.11-.53 3.93-1.58 5.48-1.05 1.55-2.82 2.32-5.29 2.32-1.98 0-4.24-.37-6.77-1.11-2.54-.74-4.73-1.11-6.59-1.11-1.98 0-3.84.47-5.57 1.39-1.73.93-2.6 2.44-2.6 4.54 0 1.24.4 2.35 1.2 3.34.81.99 1.83 1.89 3.06 2.69 1.23.81 2.51 1.52 3.81 2.14 1.3.62 2.5 1.11 3.62 1.48 7.43 2.85 13.02 6.1 16.8 9.75 3.77 3.65 5.66 8.32 5.66 14.02 0 4.58-1.08 8.32-3.25 11.23s-4.92 5.23-8.26 6.96c-3.34 1.73-6.96 2.94-10.86 3.62-3.9.68-7.52 1.02-10.86 1.02s-6.59-.28-9.75-.84c-3.15-.56-5.91-1.42-8.26-2.6-2.35-1.17-4.24-2.72-5.66-4.64-1.43-1.91-2.14-4.23-2.14-6.96 0-2.23.65-4.18 1.95-5.85 1.3-1.67 3.06-2.5 5.29-2.5 1.61 0 3.31.37 5.1 1.11 1.8.74 3.62 1.51 5.48 2.32 1.86.8 3.68 1.58 5.48 2.32 1.79.74 3.56 1.11 5.29 1.11 1.61 0 2.97-.46 4.08-1.39 1.11-.93 1.67-2.38 1.67-4.36s-.71-3.44-2.13-4.36c-1.43-.93-2.82-1.7-4.18-2.32-2.6-1.23-5.26-2.38-7.98-3.43a58.577 58.577 0 0 1-7.7-3.62 33.968 33.968 0 0 1-6.59-4.83c-1.98-1.85-3.53-4.15-4.64-6.87h.18c-1.61-5.2-1.7-9.77-.28-13.73 1.42-3.96 3.68-7.24 6.77-9.84 3.09-2.6 6.78-4.55 11.05-5.85 4.27-1.3 8.51-1.95 12.71-1.95" fill="#1d1d1b"></path><path d="M652.15 142.84c0 28.43-23.05 51.48-51.48 51.48s-51.48-23.05-51.48-51.48 23.05-51.48 51.48-51.48 51.48 23.05 51.48 51.48" fill="#536f24"></path><path d="M587.12 152.43c0 .9-.03 1.75-.1 2.53-.07.78-.25 1.46-.54 2.03-.28.57-.73 1.02-1.35 1.35-.62.33-1.48.5-2.57.5-.85 0-1.55-.09-2.07-.29-.52-.19-1-.4-1.43-.64-.38-.19-.77-.36-1.17-.5-.4-.14-.8-.21-1.17-.21-.48 0-.96.07-1.46.21-.5.14-1.01.33-1.53.57-.52.24-1.09.44-1.71.6-.62.17-1.33.25-2.14.25-1 0-1.98-.21-2.92-.64-.96-.43-1.83-.98-2.64-1.67s-1.53-1.47-2.18-2.36c-.64-.88-1.18-1.77-1.6-2.67-.53-1.09-.94-2.3-1.25-3.63-.31-1.33-.46-2.68-.46-4.06 0-2.04.26-3.96.79-5.74.52-1.78 1.29-3.35 2.32-4.71 1.02-1.35 2.29-2.46 3.81-3.31 1.52-.85 3.28-1.38 5.28-1.57h1.78c.57 0 1.14-.01 1.71-.03.57-.02 1.08-.11 1.53-.25.45-.14.82-.39 1.11-.75.28-.36.45-.87.5-1.53v-6.42c0-.67.07-1.28.22-1.85.14-.57.39-1.07.75-1.5.35-.43.84-.76 1.46-1s1.4-.36 2.35-.36c1.9 0 3.16.45 3.78 1.35.62.9.93 2.02.93 3.35v32.93Zm-12.61-17.82c-1.09 0-2.02.3-2.78.89-.76.59-1.38 1.34-1.85 2.25-.47.9-.81 1.89-1 2.96-.19 1.07-.28 2.08-.28 3.03 0 2 .41 3.72 1.25 5.17.83 1.45 2.15 2.17 3.96 2.17 1.14 0 2.08-.41 2.82-1.25.73-.83 1.1-2.03 1.1-3.6 0-.81.02-1.66.07-2.57.05-.9.07-1.97.07-3.21 0-1.71-.21-3.11-.6-4.2-.4-1.09-1.32-1.64-2.75-1.64" fill="#ffffff"></path><path d="M606.02 128.48c4.9 0 8.58 1.27 11.05 3.81 2.47 2.54 3.71 6.31 3.71 11.3s-1.31 8.84-3.92 11.4c-2.61 2.56-6.3 3.85-11.05 3.85s-8.59-1.27-11.08-3.81c-2.5-2.55-3.74-6.29-3.74-11.23s1.34-8.79 4.03-11.4c2.68-2.61 6.35-3.92 11.01-3.92m-5.35 15.33c0 1.19.1 2.3.28 3.35.19 1.04.5 1.97.93 2.78.43.81.96 1.45 1.6 1.92.64.48 1.44.71 2.39.71 1.19 0 2.14-.32 2.85-.96.71-.64 1.23-1.44 1.57-2.39.33-.95.55-1.96.64-3.03.1-1.07.14-2.01.14-2.82 0-1.19-.08-2.3-.25-3.35-.17-1.04-.44-1.95-.82-2.71-.38-.76-.89-1.35-1.53-1.78-.64-.43-1.44-.64-2.39-.64-1.23 0-2.21.3-2.92.89a5.76 5.76 0 0 0-1.64 2.25c-.38.9-.62 1.88-.71 2.92-.1 1.05-.14 1.99-.14 2.85" fill="#ffffff"></path><path d="M637.02 128.48c.9 0 1.84.07 2.81.21.97.14 1.88.38 2.71.71s1.51.77 2.03 1.32c.52.55.78 1.25.78 2.1 0 .81-.2 1.51-.6 2.1-.4.59-1.08.89-2.03.89-.76 0-1.63-.14-2.6-.43-.97-.28-1.82-.43-2.53-.43-.76 0-1.47.18-2.14.54-.66.36-1 .94-1 1.75 0 .47.15.9.46 1.28.31.38.7.73 1.17 1.03.47.31.96.58 1.46.82s.96.43 1.39.57c2.85 1.09 5 2.34 6.45 3.74 1.45 1.4 2.17 3.2 2.17 5.38 0 1.76-.41 3.2-1.25 4.31a9.042 9.042 0 0 1-3.17 2.67 14.13 14.13 0 0 1-4.17 1.39c-1.5.26-2.89.39-4.17.39s-2.53-.11-3.74-.32c-1.21-.21-2.27-.55-3.17-1-.9-.45-1.63-1.05-2.18-1.78-.55-.74-.82-1.63-.82-2.67 0-.85.25-1.6.75-2.24.5-.64 1.18-.96 2.03-.96.62 0 1.27.14 1.96.43s1.39.58 2.1.89c.71.31 1.42.6 2.1.89.69.29 1.37.43 2.03.43.62 0 1.14-.18 1.57-.54.43-.36.64-.92.64-1.68s-.27-1.32-.82-1.68c-.55-.36-1.08-.65-1.6-.89-1-.47-2.02-.91-3.06-1.32-1.05-.4-2.03-.87-2.96-1.39-.93-.52-1.77-1.14-2.53-1.85-.76-.71-1.35-1.59-1.78-2.64h.07c-.62-2-.66-3.76-.11-5.28.55-1.52 1.42-2.78 2.6-3.78 1.19-1 2.6-1.75 4.24-2.24 1.64-.5 3.27-.75 4.88-.75" fill="#ffffff"></path><path d="M71.03 154.53c-.96-2.93-3.38-5.4-6.66-6.33-5.03-1.42-10.13 1.31-11.38 6.11-.15.58-.23 1.16-.26 1.74 2.42-1.66 5.73-2.79 9.44-3.01 3.31-.19 6.39.38 8.85 1.49Z" fill="#536f24"></path><path d="M84.81 237.42c5.95-7.35 13.58-10.06 22.45-8.48 9.8 1.75 17.94 7.04 24.77 14.59 2.27 2.51 4.27 5.29 6.71 8.34.37-1.55.65-2.7.92-3.86 1.73-7.55 4.23-14.78 7.72-21.61 8.22-16.1 24.86-22.52 39.84-19.04 9.36 2.17 15.62 8.85 19.58 17.69 1.92 4.27 3.12 8.62 3.63 13.01.55 4.74.24 8.97-.43 12.73 5.76-.09 11.55.39 17.24 1.22 2.14.37 14.87 1.6 14.61 4.96-.17 2.21-9.97 1.22-11.73 1.14-7.56-.34-15-.18-22.23.92-5.71.87-11.29 2.32-16.68 4.66-6.88 2.99-23.01 13.23-12.21 22.22 3.61 3.01 8.16 4.9 13.08 6.1 9.48 2.32 20.37 2.03 28.76 1.91 16.01-.22 32.47-2.03 46.38-10.91 15.57-9.94 20.94-27.68 19.74-45.92-1.64-26.33-8.22-53.85-15.1-79.45-1.36-5.07-2.82-10.14-4.33-15.21-28.61-.28-65.63-28.07-85.25-114-8.63 1.27-17.31 2.09-25.92 2.55-22.3 1.18-45.16.29-67.54-2.91-6.53 22.7-29.67 26.24-37.85 26.77-.84 8.84-.85 17.8.48 26.57 2.99 19.68 14.02 36.5 32.11 43.97 12.45 5.14 25.69 7.15 39.05 6.24 17.65-1.2 33.63-10.38 48.11-20.25-.49.34-3.44 2.34.03-.02.9-.61 2.14.09 2.11 1.24-.03.92-1.3 1.83-1.75 2.26-2.21 2.11-4.48 4.16-6.83 6.11-5.24 4.36-10.83 8.22-16.82 11.37-1.45.77-2.93 1.46-4.42 2.12l7.17 72.65a50.783 50.783 0 0 0-8.48 11.41l-7.96-80.63c-15.02 4.44-31.11 4.15-46.26-.45-16.57-5.03-30.11-15.56-38.39-30.41-4.47 11.12-8.82 22.29-12.96 33.55-10.03 27.32-20.61 55.83-24.77 84.89-1.96 13.69-2.1 29.07 4.76 41.41 4.99 9.1 13.62 14.47 22.96 17.57 13.58 4.53 28.25 5.87 42.38 3.83 2.77-.4 6.04-.97 9.4-1.79 8.32-2.04 17.25-5.73 20.83-12.85 4.35-11.09-13.12-11.59-19.51-11.42-4.44-.14-9 .34-13.46.95-1.39.19-2.77.39-4.14.59-3.27.48-9.87 1.73-6.69-2.05 1.23-1.46 4.38-2.6 6-3.12 1.36-.44 2.73-.81 4.1-1.18-.45-7.64 2.05-14.15 6.77-19.98Zm75.72-188.06c-6.42-1.5-12.55-.22-16.19 2.91 2.5-5.49 7.07-9.81 12.57-11.03 8.75-1.94 16.39 4.57 17.08 14.55a22 22 0 0 1-.05 3.25c-2.06-4.39-7.05-8.2-13.41-9.68Zm-52.72 108.52c5.22 0 9.44 4.03 9.44 9 0 .6-.07 1.18-.19 1.75-1.92-2.27-4.83-4.26-8.36-5.48-3.15-1.09-6.27-1.38-8.92-.98 1.66-2.57 4.62-4.29 8.02-4.29Zm-54.82-.8c1.25-4.8 6.34-7.53 11.38-6.11 3.28.93 5.7 3.4 6.66 6.33-2.46-1.11-5.54-1.68-8.85-1.49-3.71.21-7.02 1.34-9.44 3.01.03-.58.11-1.16.26-1.74Zm14.24 42.76c-.81 0-1.62-.07-2.43-.22-4.24-.76-7.89-3.43-10.28-7.52-2.34-4.01-3.18-8.9-2.37-13.8.18-1.09 1.17-1.82 2.21-1.63 1.04.19 1.74 1.22 1.56 2.3-.65 3.95.01 7.87 1.87 11.05 1.8 3.09 4.53 5.11 7.66 5.67 3.14.56 6.35-.39 9.04-2.68 2.15-1.83 3.76-4.34 4.67-7.21-3.59-4.02-5.91-9.01-6.46-14.33 3.45-.74 7.12-.84 10.87-.17 3.74.67 7.18 2.05 10.19 3.94-2.21 4.81-5.97 8.69-10.62 11.23-.06 3.05.65 5.99 2.1 8.47 1.8 3.09 4.53 5.11 7.66 5.67 6.58 1.19 13.01-4.4 14.33-12.45.18-1.08 1.17-1.81 2.21-1.63 1.04.19 1.74 1.22 1.56 2.3-1.53 9.26-8.59 15.92-16.34 15.91-.79 0-1.6-.07-2.4-.21-4.24-.76-7.89-3.43-10.28-7.52-.81-1.39-1.43-2.9-1.88-4.47-.92 1.33-1.99 2.53-3.2 3.57-2.88 2.45-6.24 3.73-9.66 3.73Z" fill="none"></path><path d="M166.64 274.63c2.88-10.73 12.29-16.41 21.67-20 7-2.68 14.32-3.74 21.69-3.84.67-3.76.99-7.98.43-12.73-.51-4.39-1.71-8.74-3.63-13.01-3.97-8.84-10.23-15.52-19.58-17.69-14.98-3.47-31.61 2.94-39.84 19.04-3.49 6.83-5.99 14.07-7.72 21.61-.26 1.15-.55 2.31-.92 3.86-2.44-3.05-4.44-5.83-6.71-8.34-6.83-7.55-14.97-12.84-24.77-14.59-8.87-1.58-16.5 1.13-22.45 8.48-4.72 5.83-7.22 12.34-6.77 19.98 1.85-.49 3.72-.96 5.58-1.42 5.42-.97 10.82-1.85 16.34-1.73 10.59.24 23.97 5.8 21.27 19.4-1.98 10-11.52 15.89-19.96 19.4-.84.35-1.71.63-2.56.95 1.16.98 2.3 1.96 3.51 2.89 12.38 9.49 12.21 9.18 21.86 17.82 10.58 9.48 15.02 15.06 18.41 20.54 2.18 3.52 3.8 6.77 4.96 9.4.42.95 1.62 1.14 2.28.36 3.31-3.91 7.82-9.26 13.1-15.61 11.05-13.31 18.06-21.76 23.18-28.62-13.17-3.88-23.32-11.43-19.38-26.15Z" fill="#f08817"></path><path d="M80.1 192.54c.44 1.57 1.06 3.08 1.88 4.47 2.39 4.09 6.04 6.76 10.28 7.52.8.14 1.61.21 2.4.21 7.76 0 14.82-6.65 16.34-15.91.18-1.09-.52-2.12-1.56-2.3-1.04-.19-2.03.54-2.21 1.63-1.32 8.04-7.75 13.63-14.33 12.45-3.14-.56-5.86-2.57-7.66-5.67-1.45-2.48-2.16-5.42-2.1-8.47 4.64-2.54 8.4-6.43 10.62-11.23-3.01-1.9-6.45-3.27-10.19-3.94a28.11 28.11 0 0 0-10.87.17c.55 5.32 2.87 10.31 6.46 14.33-.92 2.88-2.52 5.38-4.67 7.21-2.69 2.29-5.9 3.24-9.04 2.68-3.14-.56-5.86-2.57-7.66-5.67-1.86-3.18-2.52-7.11-1.87-11.05.18-1.08-.52-2.12-1.56-2.3-1.04-.19-2.03.54-2.21 1.63-.81 4.89.04 9.79 2.37 13.8 2.39 4.09 6.04 6.76 10.28 7.52.81.15 1.63.22 2.43.22 3.43 0 6.79-1.29 9.66-3.73 1.21-1.03 2.28-2.24 3.2-3.57Z" fill="#536f24"></path><path d="M108.72 163.15c3.53 1.22 6.44 3.21 8.36 5.48.12-.57.19-1.15.19-1.75 0-4.97-4.23-9-9.44-9-3.4 0-6.35 1.73-8.02 4.29 2.65-.4 5.77-.11 8.92.98Z" fill="#536f24"></path><path d="M173.99 55.79c-.68-9.98-8.33-16.5-17.08-14.55-5.5 1.22-10.07 5.53-12.57 11.03 3.64-3.13 9.77-4.4 16.19-2.91 6.36 1.48 11.35 5.3 13.41 9.68a22 22 0 0 0 .05-3.25Z" fill="#536f24"></path><path d="M279.7 146.02c-.48-1.61-1.01-3.2-1.51-4.81 17.47-4.25 29.63-19.12 28.62-35.3-2.07-33.06-35.27-77.65-51.96-98.13-5.53-6.79-14.43-9.45-22.56-6.73 0 0-1.64.85-4.55 2.18-17.16 7.89-35.4 12.98-54.05 15.03-12.73 1.39-25.55 1.93-38.39 1.74-15.53-.24-31.06-1.52-46.44-3.73-7.18-1.03-14.34-2.25-21.44-3.78-6.62-1.43-12.79-.5-17.74 4.84-5.9 6.36-6.94 18.19-8.17 26.34-2.33 15.46-2.74 31.68 1.14 46.91.4 1.56.85 3.09 1.34 4.59a861.233 861.233 0 0 0-27.14 69.91c-4.96 14.62-9.47 29.48-12.87 44.58-3.4 15.11-5.57 31.07-2.49 46.45 2.85 14.24 10.88 26.25 23.15 33.29 10.03 5.75 22.17 8.32 33.42 9.36 13.57 1.26 27.76.03 40.67-4.77.85-.32 1.72-.6 2.56-.95 8.45-3.51 17.98-9.4 19.96-19.4 2.7-13.6-10.68-19.15-21.27-19.4-5.52-.13-10.92.75-16.34 1.73-1.86.47-3.73.93-5.58 1.42-1.37.37-2.75.74-4.1 1.18-1.62.52-4.78 1.66-6 3.12-3.18 3.78 3.42 2.53 6.69 2.05 1.37-.2 2.75-.4 4.14-.59 4.47-.61 9.02-1.09 13.46-.95 6.39-.16 23.86.33 19.51 11.42-3.59 7.12-12.51 10.81-20.83 12.85-3.36.83-6.63 1.39-9.4 1.79-14.12 2.04-28.8.7-42.38-3.83-9.34-3.11-17.97-8.47-22.96-17.57-6.86-12.34-6.73-27.72-4.76-41.41 4.17-29.06 14.74-57.57 24.77-84.89 4.13-11.26 8.49-22.43 12.96-33.55 8.29 14.85 21.83 25.38 38.39 30.41 15.15 4.6 31.25 4.89 46.26.45l7.96 80.63a51.01 51.01 0 0 1 8.48-11.41l-7.17-72.65c1.49-.66 2.96-1.36 4.42-2.12 5.98-3.15 11.58-7.01 16.82-11.37 2.35-1.95 4.62-4 6.83-6.11.45-.43 1.72-1.34 1.75-2.26.04-1.15-1.21-1.85-2.11-1.24-3.46 2.36-.52.35-.03.02-14.49 9.87-30.46 19.05-48.11 20.25-13.37.91-26.61-1.1-39.05-6.24-18.09-7.47-29.12-24.29-32.11-43.97-1.33-8.77-1.32-17.73-.48-26.57 8.19-.53 31.32-4.08 37.85-26.77 22.38 3.2 45.23 4.09 67.54 2.91 8.61-.46 17.29-1.28 25.92-2.55 19.62 85.92 56.64 113.71 85.25 114 1.51 5.07 2.97 10.14 4.33 15.21 6.88 25.61 13.46 53.13 15.1 79.45 1.2 18.25-4.17 35.98-19.74 45.92-13.91 8.88-30.38 10.69-46.38 10.91-8.4.12-19.28.4-28.76-1.91-4.92-1.2-9.47-3.09-13.08-6.1-10.8-8.99 5.33-19.23 12.21-22.22 5.39-2.34 10.97-3.79 16.68-4.66 7.23-1.1 14.66-1.27 22.23-.92 1.76.08 11.56 1.07 11.73-1.14.26-3.36-12.47-4.59-14.61-4.96-5.69-.83-11.48-1.31-17.24-1.22-7.37.11-14.69 1.16-21.69 3.84-9.38 3.59-18.79 9.27-21.67 20-3.95 14.72 6.21 22.27 19.38 26.15 13.42 3.95 29.97 4.09 37.94 4.08 18.06-.28 38.6-3.11 53.28-15.24 15.57-12.86 22.46-31.86 20.72-52.41-2.62-30.84-9.41-61.69-18.25-91.19Zm-8.45-16.3-.4.06-.71.09c-1.47.11-2.93.09-4.41.07-1.03-.01-2.03.08-2.98.33-21.79-1.36-51.08-35.2-68.19-103.52 11.96-1.52 23.59-4.77 34.58-9.67 2.2-.98 3.44-1.61 3.44-1.61 6.18-1.93 13.07.5 17.49 6.14 13.32 17 39.89 53.93 42.29 80.58 1.17 13.05-7.81 24.61-21.13 27.47l.02.05Z" fill="#536f24"></path></g></svg>