<svg width="24" height="25" viewBox="0 0 24 25" fill="none" xmlns="http://www.w3.org/2000/svg">
    <path fill-rule="evenodd" clip-rule="evenodd" d="M14 3.65137V3.94125C16.8915 4.8018 19 7.48035 19 10.6514V17.6514H20V19.6514H4V17.6514H5V10.6514C5 7.48035 7.10851 4.8018 10 3.94125V3.65137C10 2.5468 10.8954 1.65137 12 1.65137C13.1046 1.65137 14 2.5468 14 3.65137ZM7 17.6514H17V10.6514C17 7.88994 14.7614 5.65137 12 5.65137C9.23858 5.65137 7 7.88994 7 10.6514V17.6514ZM14 21.6514V20.6514H10V21.6514C10 22.7559 10.8954 23.6514 12 23.6514C13.1046 23.6514 14 22.7559 14 21.6514Z" fill="currentColor"/>
</svg>
