<svg width="279" height="260" viewBox="0 0 279 260" fill="none" xmlns="http://www.w3.org/2000/svg">
  <path d="M135.89 62.5671H105.243C99.4197 62.5671 94.706 67.2888 94.706 73.1045V102.891C94.706 108.714 99.4277 113.428 105.243 113.428H117.454L120.704 124.553L124.548 113.428H135.898C141.722 113.428 146.436 108.706 146.436 102.891V73.1045C146.436 67.2808 141.714 62.5671 135.898 62.5671H135.89Z" fill="#415CC4"/>
  <g opacity="0.7">
    <path d="M135.89 62.5671H105.243C99.4197 62.5671 94.706 67.2888 94.706 73.1045V102.891C94.706 108.714 99.4277 113.428 105.243 113.428H117.454L120.704 124.553L124.548 113.428H135.898C141.722 113.428 146.436 108.706 146.436 102.891V73.1045C146.436 67.2808 141.714 62.5671 135.898 62.5671H135.89Z" fill="white"/>
    <path d="M135.89 62.5671H105.243C99.4197 62.5671 94.706 67.2888 94.706 73.1045V102.891C94.706 108.714 99.4277 113.428 105.243 113.428H117.454L120.704 124.553L124.548 113.428H135.898C141.722 113.428 146.436 108.706 146.436 102.891V73.1045C146.436 67.2808 141.714 62.5671 135.898 62.5671H135.89Z" fill="white" fill-opacity="0.2"/>
  </g>
  <path d="M109.925 82.0251C112.587 77.5769 117.8 79.2017 120.527 82.5962C123.165 79.1293 128.337 77.3677 131.112 81.7516C135.794 89.1358 126.439 96.15 122.015 98.909C121.516 99.2227 121.098 99.4881 120.752 99.6892C120.398 99.4962 119.98 99.2468 119.473 98.9411C114.976 96.3028 105.445 89.5299 109.933 82.0251H109.925Z" fill="#415CC4"/>
  <path d="M265.275 23.0174L230.631 3.18018H203.934L168.702 22.0754V150.645H265.275V23.0174Z" fill="#E1E1E1"/>
  <path d="M167.713 23.0174L168.71 22.0754C181.597 9.88492 198.569 3.18018 216.499 3.18018C234.428 3.18018 251.4 9.89284 264.287 22.0754L265.284 23.0174V150.645H167.713V23.0174ZM258.809 25.7483C247.266 15.2915 232.288 9.54454 216.499 9.54454C200.701 9.54454 185.731 15.2915 174.188 25.7483V144.273H258.809V25.7483Z" fill="white"/>
  <path d="M167.713 23.0174L168.71 22.0754C181.597 9.88492 198.569 3.18018 216.499 3.18018C234.428 3.18018 251.4 9.89284 264.287 22.0754L265.284 23.0174V150.645H167.713V23.0174ZM258.809 25.7483C247.266 15.2915 232.288 9.54454 216.499 9.54454C200.701 9.54454 185.731 15.2915 174.188 25.7483V144.273H258.809V25.7483Z" fill="white" fill-opacity="0.2"/>
  <path d="M218.919 145.041H214.069V102.374H172.957V97.6007H214.069V53.9525H172.957V49.1792H214.069V8.72119H218.919V49.1792H260.031V53.9525H218.919V97.6007H260.031V102.374H218.919V145.041Z" fill="#C8C8C8"/>
  <path d="M164.471 21.7192L165.42 20.7851C193.582 -6.92837 239.407 -6.92837 267.568 20.7851L268.517 21.7192V153.835H164.479V21.7192H164.471ZM262.042 24.3789C236.656 0.362152 196.341 0.370068 170.946 24.3789V147.471H262.042V24.371V24.3789Z" fill="#C8C8C8"/>
  <path d="M69.4737 58.8525H66.4975V105.295H69.4737V58.8525Z" fill="#C8C8C8"/>
  <path d="M67.9853 136.737C84.2002 136.737 97.3451 127.324 97.3451 115.712C97.3451 104.101 84.2002 94.6877 67.9853 94.6877C51.7703 94.6877 38.6254 104.101 38.6254 115.712C38.6254 127.324 51.7703 136.737 67.9853 136.737Z" fill="#C8C8C8"/>
  <path d="M3.47473 133.594V217.067H13.6742V155.149H122.306V217.067H132.505V133.594H3.47473Z" fill="#E1E1E1"/>
  <path d="M135.972 128.607H-0.000427246V146.845H135.972V128.607Z" fill="#C8C8C8"/>
  <path d="M88.3446 93.2549H47.6189V100.783H88.3446V93.2549Z" fill="#C8C8C8"/>
  <path d="M107.626 86.2969H28.3461L44.0877 30.3079H91.892L107.626 86.2969Z" fill="#C8C8C8"/>
  <path d="M223.23 194.783C223.23 194.783 231.998 215.914 239.406 220.973C239.406 220.973 247.474 211.329 263.537 207.878" stroke="#04112A" stroke-width="1.34331" stroke-linecap="round" stroke-linejoin="round"/>
  <path d="M221.673 177.656C221.946 177.674 222.203 177.79 222.431 178.045C222.942 178.62 223.198 179.448 223.415 180.483C223.625 181.486 223.797 182.687 224.179 183.833C224.566 184.997 225.18 186.15 226.304 187.11C227.425 188.068 229.023 188.808 231.335 189.203C235.644 189.939 238.31 193.69 239.91 197.388C240.704 199.224 241.221 201.016 241.54 202.351C241.699 203.018 241.809 203.569 241.878 203.953C241.913 204.144 241.937 204.294 241.953 204.395C241.955 204.406 241.956 204.416 241.958 204.425L241.965 204.52C242.164 207.338 241.225 208.962 239.768 209.799C238.269 210.66 236.12 210.751 233.799 210.246C231.49 209.743 229.078 208.665 227.107 207.284C225.128 205.895 223.645 204.236 223.114 202.598C222.557 200.87 222.41 199.744 222.412 198.912C222.414 198.049 222.565 197.543 222.64 196.855C222.79 195.469 222.47 194.066 219.828 190.274C217.277 186.615 217.499 182.923 218.618 180.477C219.181 179.246 219.958 178.358 220.691 177.934C221.056 177.723 221.39 177.637 221.673 177.656Z" fill="#415CC4" stroke="#415CC4" stroke-width="0.804379"/>
  <g opacity="0.2">
    <path d="M221.673 177.656C221.946 177.674 222.203 177.79 222.431 178.045C222.942 178.62 223.198 179.448 223.415 180.483C223.625 181.486 223.797 182.687 224.179 183.833C224.566 184.997 225.18 186.15 226.304 187.11C227.425 188.068 229.023 188.808 231.335 189.203C235.644 189.939 238.31 193.69 239.91 197.388C240.704 199.224 241.221 201.016 241.54 202.351C241.699 203.018 241.809 203.569 241.878 203.953C241.913 204.144 241.937 204.294 241.953 204.395C241.955 204.406 241.956 204.416 241.958 204.425L241.965 204.52C242.164 207.338 241.225 208.962 239.768 209.799C238.269 210.66 236.12 210.751 233.799 210.246C231.49 209.743 229.078 208.665 227.107 207.284C225.128 205.895 223.645 204.236 223.114 202.598C222.557 200.87 222.41 199.744 222.412 198.912C222.414 198.049 222.565 197.543 222.64 196.855C222.79 195.469 222.47 194.066 219.828 190.274C217.277 186.615 217.499 182.923 218.618 180.477C219.181 179.246 219.958 178.358 220.691 177.934C221.056 177.723 221.39 177.637 221.673 177.656Z" fill="white"/>
    <path d="M221.673 177.656C221.946 177.674 222.203 177.79 222.431 178.045C222.942 178.62 223.198 179.448 223.415 180.483C223.625 181.486 223.797 182.687 224.179 183.833C224.566 184.997 225.18 186.15 226.304 187.11C227.425 188.068 229.023 188.808 231.335 189.203C235.644 189.939 238.31 193.69 239.91 197.388C240.704 199.224 241.221 201.016 241.54 202.351C241.699 203.018 241.809 203.569 241.878 203.953C241.913 204.144 241.937 204.294 241.953 204.395C241.955 204.406 241.956 204.416 241.958 204.425L241.965 204.52C242.164 207.338 241.225 208.962 239.768 209.799C238.269 210.66 236.12 210.751 233.799 210.246C231.49 209.743 229.078 208.665 227.107 207.284C225.128 205.895 223.645 204.236 223.114 202.598C222.557 200.87 222.41 199.744 222.412 198.912C222.414 198.049 222.565 197.543 222.64 196.855C222.79 195.469 222.47 194.066 219.828 190.274C217.277 186.615 217.499 182.923 218.618 180.477C219.181 179.246 219.958 178.358 220.691 177.934C221.056 177.723 221.39 177.637 221.673 177.656Z" fill="white" fill-opacity="0.2"/>
    <path d="M221.673 177.656C221.946 177.674 222.203 177.79 222.431 178.045C222.942 178.62 223.198 179.448 223.415 180.483C223.625 181.486 223.797 182.687 224.179 183.833C224.566 184.997 225.18 186.15 226.304 187.11C227.425 188.068 229.023 188.808 231.335 189.203C235.644 189.939 238.31 193.69 239.91 197.388C240.704 199.224 241.221 201.016 241.54 202.351C241.699 203.018 241.809 203.569 241.878 203.953C241.913 204.144 241.937 204.294 241.953 204.395C241.955 204.406 241.956 204.416 241.958 204.425L241.965 204.52C242.164 207.338 241.225 208.962 239.768 209.799C238.269 210.66 236.12 210.751 233.799 210.246C231.49 209.743 229.078 208.665 227.107 207.284C225.128 205.895 223.645 204.236 223.114 202.598C222.557 200.87 222.41 199.744 222.412 198.912C222.414 198.049 222.565 197.543 222.64 196.855C222.79 195.469 222.47 194.066 219.828 190.274C217.277 186.615 217.499 182.923 218.618 180.477C219.181 179.246 219.958 178.358 220.691 177.934C221.056 177.723 221.39 177.637 221.673 177.656Z" stroke="#415CC4" stroke-width="0.804379"/>
  </g>
  <path d="M240.46 213.967C237.613 200.438 230.132 187.865 233.068 173.652C235.014 164.208 240.259 155.642 244.771 147.244C248.986 139.401 253.443 131.559 256.507 123.169C259.355 115.375 260.666 106.961 257.931 98.9412" stroke="#415CC4" stroke-width="1.02156" stroke-linecap="round" stroke-linejoin="round"/>
  <path d="M253.413 88.8936C256.546 89.067 258.466 90.2268 259.625 91.8213C260.797 93.4344 261.233 95.549 261.27 97.6963C261.307 99.8384 260.948 101.969 260.577 103.569C260.391 104.368 260.204 105.031 260.063 105.494C260.025 105.618 259.988 105.727 259.958 105.821C258.614 105.251 256.869 103.975 255.128 102.322C253.227 100.518 251.376 98.3086 250.111 96.1943C249.478 95.1373 248.999 94.1151 248.73 93.1875C248.459 92.2557 248.41 91.4516 248.596 90.8105C248.777 90.1885 249.19 89.681 249.939 89.3379C250.705 88.9874 251.829 88.8059 253.413 88.8936Z" fill="#415CC4" stroke="#415CC4" stroke-width="0.804379"/>
  <path d="M236.025 106.956C238.223 106.231 240.052 106.622 241.583 107.614C243.132 108.616 244.391 110.246 245.385 112.006C246.375 113.762 247.084 115.617 247.546 117.038C247.776 117.748 247.943 118.347 248.054 118.768C248.068 118.824 248.081 118.878 248.094 118.928C243.729 118.775 238.613 116.475 235.603 113.821C234.027 112.43 233.12 111.024 233.085 109.856C233.068 109.292 233.252 108.762 233.701 108.279C234.101 107.847 234.722 107.442 235.622 107.1L236.025 106.956Z" fill="#415CC4" stroke="#415CC4" stroke-width="0.804379"/>
  <path d="M272.868 108.956C275.252 108.96 276.626 109.63 277.237 110.52C277.838 111.396 277.799 112.635 277.007 114.028C275.455 116.758 271.13 119.779 264.537 120.67C264.536 120.639 264.535 120.607 264.534 120.574C264.524 120.238 264.522 119.756 264.548 119.177C264.602 118.018 264.773 116.481 265.239 114.951C265.705 113.419 266.46 111.92 267.665 110.806C268.86 109.702 270.524 108.952 272.868 108.956Z" fill="#415CC4" stroke="#415CC4" stroke-width="0.804379"/>
  <path d="M264.396 142.367C266.326 141.514 268.346 140.958 270.13 141.126C271.882 141.292 273.435 142.157 274.489 144.233C275.565 146.352 275.448 147.925 274.697 149.015C273.926 150.132 272.409 150.863 270.435 151.101C266.604 151.563 261.336 150.124 257.58 146.58C257.647 146.527 257.722 146.466 257.806 146.401C258.176 146.113 258.711 145.71 259.367 145.253C260.682 144.339 262.473 143.216 264.396 142.367Z" fill="#415CC4" stroke="#415CC4" stroke-width="0.804379"/>
  <path d="M221.41 130.562C223.994 129.168 225.976 129.319 227.524 130.242C229.108 131.187 230.313 132.982 231.213 135.023C232.109 137.054 232.679 139.273 233.025 140.99C233.197 141.847 233.314 142.576 233.387 143.09C233.411 143.258 233.428 143.403 233.443 143.521C231.298 143.835 228.894 143.558 226.611 142.863C224.196 142.128 221.948 140.937 220.321 139.53C218.685 138.114 217.738 136.537 217.773 135.029C217.807 133.55 218.793 131.974 221.41 130.562Z" fill="#415CC4" stroke="#415CC4" stroke-width="0.804379"/>
  <path d="M217.658 154.191C221.216 153.749 223.263 154.609 224.411 156.024C225.581 157.467 225.908 159.592 225.779 161.866C225.65 164.126 225.073 166.455 224.524 168.227C224.25 169.111 223.985 169.853 223.788 170.373C223.727 170.531 223.671 170.669 223.625 170.784C221.251 169.569 218.86 168.052 216.801 166.419C214.625 164.694 212.839 162.862 211.818 161.155C210.791 159.438 210.594 157.957 211.353 156.813C212.138 155.631 214.041 154.641 217.658 154.191Z" fill="#415CC4" stroke="#415CC4" stroke-width="0.804379"/>
  <path d="M260.549 169.463C262.967 168.838 265.379 168.871 267.575 170.019C269.79 171.176 270.915 172.859 271.084 174.549C271.252 176.24 270.473 178.029 268.692 179.423C265.178 182.172 257.763 183.34 246.584 178.776C246.632 178.726 246.684 178.671 246.741 178.612C247.1 178.24 247.625 177.713 248.284 177.096C249.603 175.859 251.455 174.263 253.588 172.818C255.725 171.372 258.128 170.089 260.549 169.463Z" fill="#415CC4" stroke="#415CC4" stroke-width="0.804379"/>
  <path d="M253.413 88.8936C256.546 89.067 258.466 90.2268 259.625 91.8213C260.797 93.4344 261.233 95.549 261.27 97.6963C261.308 99.8384 260.949 101.969 260.577 103.569C260.392 104.368 260.204 105.031 260.063 105.494C260.026 105.618 259.988 105.727 259.958 105.821C258.614 105.251 256.869 103.975 255.128 102.322C253.228 100.518 251.376 98.3086 250.111 96.1943C249.479 95.1373 249 94.1151 248.73 93.1875C248.46 92.2557 248.411 91.4516 248.597 90.8105C248.777 90.1885 249.19 89.681 249.939 89.3379C250.705 88.9874 251.83 88.8059 253.413 88.8936Z" fill="#415CC4" stroke="#415CC4" stroke-width="0.804379"/>
  <path d="M236.026 106.956C238.223 106.231 240.052 106.622 241.583 107.614C243.132 108.616 244.392 110.246 245.385 112.006C246.376 113.762 247.085 115.617 247.546 117.038C247.777 117.748 247.944 118.347 248.054 118.768C248.069 118.824 248.081 118.878 248.094 118.928C243.729 118.775 238.614 116.475 235.604 113.821C234.027 112.43 233.12 111.024 233.085 109.856C233.068 109.292 233.252 108.762 233.701 108.279C234.102 107.847 234.723 107.442 235.622 107.1L236.026 106.956Z" fill="#415CC4" stroke="#415CC4" stroke-width="0.804379"/>
  <path d="M272.868 108.956C275.252 108.96 276.626 109.63 277.237 110.52C277.838 111.396 277.8 112.635 277.008 114.028C275.455 116.758 271.13 119.779 264.537 120.67C264.536 120.639 264.535 120.607 264.534 120.574C264.525 120.238 264.522 119.756 264.549 119.177C264.602 118.018 264.773 116.481 265.239 114.951C265.706 113.419 266.461 111.92 267.665 110.806C268.86 109.702 270.524 108.952 272.868 108.956Z" fill="#415CC4" stroke="#415CC4" stroke-width="0.804379"/>
  <path d="M264.396 142.367C266.326 141.514 268.346 140.958 270.131 141.126C271.882 141.292 273.435 142.157 274.489 144.233C275.565 146.352 275.449 147.925 274.697 149.015C273.927 150.132 272.41 150.863 270.435 151.101C266.604 151.563 261.337 150.124 257.581 146.58C257.647 146.527 257.722 146.466 257.806 146.401C258.177 146.113 258.712 145.71 259.368 145.253C260.682 144.339 262.474 143.216 264.396 142.367Z" fill="#415CC4" stroke="#415CC4" stroke-width="0.804379"/>
  <path d="M221.411 130.562C223.995 129.168 225.976 129.319 227.524 130.242C229.108 131.187 230.313 132.982 231.213 135.023C232.109 137.054 232.679 139.273 233.025 140.99C233.197 141.847 233.314 142.576 233.387 143.09C233.411 143.258 233.428 143.403 233.443 143.521C231.299 143.835 228.894 143.558 226.612 142.863C224.196 142.128 221.948 140.937 220.322 139.53C218.685 138.114 217.738 136.537 217.773 135.029C217.807 133.55 218.793 131.974 221.411 130.562Z" fill="#415CC4" stroke="#415CC4" stroke-width="0.804379"/>
  <path d="M217.658 154.191C221.216 153.749 223.263 154.609 224.411 156.024C225.582 157.467 225.909 159.592 225.779 161.866C225.65 164.126 225.073 166.455 224.524 168.227C224.25 169.111 223.985 169.853 223.788 170.373C223.728 170.531 223.671 170.669 223.626 170.784C221.251 169.569 218.861 168.052 216.802 166.419C214.625 164.694 212.84 162.862 211.818 161.155C210.791 159.438 210.594 157.957 211.353 156.813C212.138 155.631 214.041 154.641 217.658 154.191Z" fill="#415CC4" stroke="#415CC4" stroke-width="0.804379"/>
  <path d="M260.55 169.463C262.967 168.838 265.38 168.871 267.575 170.019C269.79 171.176 270.915 172.859 271.084 174.549C271.253 176.24 270.473 178.029 268.692 179.423C265.179 182.172 257.763 183.34 246.584 178.776C246.632 178.726 246.684 178.671 246.741 178.612C247.101 178.24 247.625 177.713 248.284 177.096C249.603 175.859 251.455 174.263 253.589 172.818C255.725 171.372 258.128 170.089 260.55 169.463Z" fill="#415CC4" stroke="#415CC4" stroke-width="0.804379"/>
  <path d="M267.511 117.096C267.511 117.096 261.719 125.22 253.981 129.274C253.981 129.274 249.203 119.413 245.342 116.951" stroke="#415CC4" stroke-width="1.02156" stroke-linecap="round" stroke-linejoin="round"/>
  <path d="M267.053 145.667C267.053 145.667 252.904 144.831 241.466 152.995C241.466 152.995 235.529 142.281 227.494 137.254" stroke="#415CC4" stroke-width="1.02156" stroke-linecap="round" stroke-linejoin="round"/>
  <path d="M219.811 161.956C219.811 161.956 225.458 178.116 233.043 184.551C233.043 184.551 249.38 175.663 261.196 175.751" stroke="#415CC4" stroke-width="1.02156" stroke-linecap="round" stroke-linejoin="round"/>
  <path d="M266.973 185.624C267.059 185.622 267.119 185.638 267.164 185.664C267.209 185.689 267.264 185.736 267.32 185.829C267.44 186.027 267.542 186.392 267.576 187.01C267.707 189.386 266.311 191.087 264.987 192.587C264.346 193.314 263.692 194.026 263.333 194.72C263.148 195.077 263.027 195.456 263.032 195.855C263.037 196.26 263.171 196.651 263.444 197.029C263.521 197.135 263.564 197.408 263.236 197.981C262.929 198.518 262.37 199.18 261.589 199.913C260.032 201.372 257.666 203.043 254.917 204.478C252.168 205.913 249.056 207.1 246.008 207.608C243.009 208.108 240.106 207.941 237.67 206.742C237.639 206.676 237.597 206.582 237.547 206.463C237.438 206.207 237.292 205.836 237.143 205.379C236.845 204.463 236.54 203.213 236.506 201.866C236.471 200.52 236.705 199.093 237.465 197.8C238.222 196.513 239.52 195.324 241.675 194.482C246.062 192.768 248.538 192.855 250.61 193.044C252.727 193.238 254.533 193.557 257.425 192.203C258.858 191.532 260.235 190.562 261.487 189.579C262.114 189.086 262.715 188.587 263.277 188.119C263.841 187.649 264.364 187.211 264.845 186.834C265.328 186.457 265.757 186.15 266.129 185.937C266.509 185.719 266.785 185.627 266.973 185.624Z" fill="#415CC4" stroke="#415CC4" stroke-width="0.804379"/>
  <path d="M215.711 193.16C215.936 193.14 216.219 193.187 216.577 193.309C216.932 193.43 217.331 193.615 217.783 193.84C219.563 194.729 222.058 196.221 225.064 196.158C227.811 196.101 230.819 197.676 233.186 199.326C234.36 200.145 235.357 200.968 236.06 201.586C236.339 201.831 236.571 202.045 236.75 202.212C229.171 205.726 223.417 204.776 219.686 202.481C217.769 201.301 216.377 199.761 215.537 198.268C214.741 196.853 214.468 195.532 214.647 194.611L214.689 194.432C214.829 193.929 214.996 193.62 215.166 193.434C215.325 193.259 215.5 193.18 215.711 193.16Z" fill="#415CC4" stroke="#415CC4" stroke-width="0.804379"/>
  <path d="M206.378 201.202L208.598 220.386L208.896 222.92L209.821 230.972L210.496 236.651L210.923 240.351L213.079 259.02H268.645L270.809 240.351L271.235 236.651L271.903 230.972L272.828 222.92L273.125 220.386L275.353 201.202H206.378Z" fill="#04112A"/>
  <path opacity="0.4" d="M209.821 230.972L210.497 236.651H271.235L271.903 230.972H209.821Z" fill="#9BA6BC"/>
  <path opacity="0.4" d="M210.923 240.351L213.079 259.02H268.645L270.809 240.351H210.923Z" fill="#9BA6BC"/>
  <path opacity="0.4" d="M208.598 220.386L208.896 222.92H272.828L273.125 220.386H208.598Z" fill="#9BA6BC"/>
  <path d="M243.516 259.02H18.0888C17.2362 257.685 16.7375 256.221 16.5766 254.749C16.5605 254.596 16.5525 254.435 16.5364 254.283C16.5283 254.13 16.5203 253.969 16.5203 253.816C16.5203 253.663 16.5203 253.502 16.5283 253.35C16.5364 253.012 16.5685 252.674 16.6248 252.344C16.6409 252.215 16.6651 252.087 16.6892 251.966C16.7214 251.821 16.7535 251.668 16.7857 251.532C16.8259 251.371 16.8662 251.218 16.9144 251.065C17.0029 250.767 17.1075 250.486 17.2362 250.204C17.2925 250.068 17.3649 249.923 17.4292 249.786C17.4936 249.649 17.566 249.513 17.6464 249.376C17.7268 249.239 17.7992 249.118 17.8877 248.982C18.0486 248.724 18.2336 248.467 18.4347 248.226C18.5312 248.097 18.6277 247.984 18.7404 247.864C18.8208 247.767 18.9093 247.679 18.9978 247.582C19.1828 247.405 19.3678 247.228 19.5689 247.059C19.77 246.89 19.9711 246.729 20.1882 246.585C20.3733 246.456 20.5502 246.335 20.7433 246.231C20.7594 246.215 20.7754 246.207 20.7915 246.199C20.9685 246.102 21.1374 246.006 21.3305 245.909C21.3948 245.877 21.4672 245.845 21.5316 245.812C21.7407 245.716 21.9659 245.619 22.1992 245.531C22.4083 245.451 22.6175 245.378 22.8346 245.314C29.0605 243.399 46.1134 244.944 48.06 244.944C48.1645 244.944 48.2771 244.92 48.3978 244.871C49.6124 244.389 51.4464 241.573 52.7334 239.353C52.8058 239.233 52.8782 239.112 52.9425 238.991C53.6906 237.696 54.2135 236.683 54.2617 236.586H52.3634C52.9023 235.605 53.3608 234.616 53.771 233.618C53.9963 233.079 54.2054 232.532 54.3904 232.001C54.4709 231.784 54.5432 231.575 54.6076 231.358C54.857 230.602 55.0741 229.862 55.2672 229.17C55.3637 228.824 55.4522 228.478 55.5326 228.156C55.6131 227.827 55.6855 227.505 55.7498 227.199C55.8061 226.934 55.8705 226.668 55.9187 226.419C55.959 226.234 55.9911 226.041 56.0233 225.872C56.0957 225.494 56.152 225.164 56.2083 224.858C56.2244 224.722 56.2485 224.601 56.2646 224.48C56.2888 224.376 56.3048 224.263 56.3129 224.175C56.329 224.078 56.337 223.998 56.3451 223.917C56.3531 223.837 56.3692 223.764 56.3772 223.7C56.4014 223.483 56.4174 223.362 56.4174 223.362H54.9857C54.9454 222.952 54.9133 222.542 54.8891 222.132C54.873 221.947 54.865 221.754 54.865 221.56C54.857 221.408 54.8489 221.255 54.8489 221.102C54.8328 220.643 54.8409 220.177 54.8489 219.71C54.8489 219.405 54.873 219.091 54.8811 218.777C54.8891 218.512 54.9052 218.246 54.9213 217.981C54.9213 217.836 54.9374 217.691 54.9454 217.547C55.0018 216.79 55.0741 216.042 55.1707 215.294C55.1948 215.045 55.235 214.796 55.2672 214.554C55.2994 214.305 55.3396 214.064 55.3718 213.814C55.4442 213.332 55.5246 212.849 55.605 212.374C55.6855 211.9 55.774 211.433 55.8624 210.975C55.9992 210.283 56.144 209.615 56.2888 208.972C56.337 208.763 56.3853 208.554 56.4335 208.345C56.5301 207.926 56.6266 207.524 56.7312 207.138C56.7392 207.106 56.7473 207.074 56.7553 207.041C56.8438 206.688 56.9403 206.342 57.0207 206.028V206.012C57.1173 205.666 57.2138 205.328 57.2942 205.014C57.6079 203.888 57.8895 202.995 58.0906 202.4C58.1147 202.312 58.1388 202.239 58.163 202.167C58.2112 202.03 58.2434 201.926 58.2675 201.837C58.3077 201.741 58.3238 201.684 58.3319 201.652C58.3319 201.652 58.3319 201.647 58.3319 201.636V201.62H56.7875L62.9812 175.952C62.9812 175.952 85.8014 168.56 95.9607 169.131C96.3307 169.147 96.6927 169.179 97.0305 169.228C97.1994 169.244 97.3684 169.276 97.5212 169.3C97.8027 169.348 98.0682 169.405 98.3256 169.477C98.6875 169.565 99.0173 169.686 99.2989 169.831C99.4839 169.919 99.6528 170.016 99.8056 170.128C99.9022 170.193 99.9906 170.265 100.063 170.346C100.143 170.418 100.216 170.49 100.28 170.571C100.409 170.74 100.522 170.909 100.594 171.11C100.642 171.206 100.666 171.311 100.69 171.416C100.843 172.083 101.077 172.823 101.374 173.595C101.439 173.756 101.503 173.917 101.575 174.086C101.712 174.448 101.881 174.826 102.058 175.204C102.154 175.429 102.267 175.663 102.38 175.896C102.693 176.555 103.039 177.223 103.409 177.907C105.058 180.972 107.166 184.221 108.992 186.892C109.675 187.889 110.319 188.806 110.89 189.603C111.043 189.812 111.18 190.005 111.316 190.19C111.558 190.528 111.775 190.825 111.984 191.099C112.193 191.372 112.378 191.621 112.531 191.839C112.603 191.943 112.676 192.048 112.74 192.128C112.772 192.177 112.804 192.217 112.837 192.257C112.941 192.394 113.022 192.514 113.094 192.603C113.166 192.691 113.215 192.748 113.231 192.78C113.231 192.78 113.247 192.796 113.247 192.804L110.158 192.772C115.306 196.689 131.603 203.752 131.603 203.752L130.09 204.87C145.181 210.677 199.661 208.505 200.385 208.481L199.573 208.811L197.441 209.656H197.425C197.956 209.728 198.495 209.8 199.018 209.889C201.383 210.275 203.627 210.902 205.718 211.667C206.185 211.844 206.635 212.012 207.078 212.189C207.745 212.463 208.405 212.744 209.032 213.042C216.473 216.461 221.235 221.086 221.235 221.086H217.269C220.277 222.67 226.149 230.988 231.563 239.434C234 243.238 236.349 247.059 238.304 250.309C241.344 255.385 243.444 259.061 243.444 259.061L243.516 259.02Z" fill="#415CC4"/>
  <g opacity="0.3">
    <path d="M243.516 259.02H18.0888C17.2362 257.685 16.7375 256.221 16.5766 254.749C16.5605 254.596 16.5525 254.435 16.5364 254.283C16.5283 254.13 16.5203 253.969 16.5203 253.816C16.5203 253.663 16.5203 253.502 16.5283 253.35C16.5364 253.012 16.5685 252.674 16.6248 252.344C16.6409 252.215 16.6651 252.087 16.6892 251.966C16.7214 251.821 16.7535 251.668 16.7857 251.532C16.8259 251.371 16.8662 251.218 16.9144 251.065C17.0029 250.767 17.1075 250.486 17.2362 250.204C17.2925 250.068 17.3649 249.923 17.4292 249.786C17.4936 249.649 17.566 249.513 17.6464 249.376C17.7268 249.239 17.7992 249.118 17.8877 248.982C18.0486 248.724 18.2336 248.467 18.4347 248.226C18.5312 248.097 18.6277 247.984 18.7404 247.864C18.8208 247.767 18.9093 247.679 18.9978 247.582C19.1828 247.405 19.3678 247.228 19.5689 247.059C19.77 246.89 19.9711 246.729 20.1882 246.585C20.3733 246.456 20.5502 246.335 20.7433 246.231C20.7594 246.215 20.7754 246.207 20.7915 246.199C20.9685 246.102 21.1374 246.006 21.3305 245.909C21.3948 245.877 21.4672 245.845 21.5316 245.812C21.7407 245.716 21.9659 245.619 22.1992 245.531C22.4083 245.451 22.6175 245.378 22.8346 245.314C29.0605 243.399 46.1134 244.944 48.06 244.944C48.1645 244.944 48.2771 244.92 48.3978 244.871C49.6124 244.389 51.4464 241.573 52.7334 239.353C52.8058 239.233 52.8782 239.112 52.9425 238.991C53.6906 237.696 54.2135 236.683 54.2617 236.586H52.3553C52.8943 235.605 53.3608 234.616 53.7791 233.618C53.9239 233.24 54.0767 232.87 54.2135 232.5C54.2859 232.331 54.3422 232.162 54.3985 232.001C54.4789 231.784 54.5513 231.575 54.6156 231.358C54.865 230.602 55.0822 229.862 55.2752 229.17C55.3718 228.824 55.4602 228.478 55.5407 228.156C55.6211 227.827 55.6935 227.505 55.7579 227.199C55.8142 226.934 55.8785 226.668 55.9268 226.419C55.967 226.234 55.9992 226.041 56.0313 225.872C56.1037 225.494 56.16 225.164 56.2164 224.858C56.2324 224.722 56.2566 224.601 56.2727 224.48C56.2968 224.376 56.3129 224.263 56.3209 224.175C56.337 224.078 56.3451 223.998 56.3531 223.917C56.3611 223.837 56.3772 223.764 56.3853 223.7C56.4094 223.483 56.4255 223.362 56.4255 223.362H54.9937C54.9535 222.952 54.9213 222.542 54.8972 222.132C54.8811 221.947 54.873 221.754 54.873 221.56C54.865 221.408 54.857 221.255 54.857 221.102C54.8409 220.643 54.8489 220.177 54.857 219.71C54.857 219.405 54.8811 219.091 54.8891 218.777C54.8972 218.512 54.9133 218.246 54.9294 217.981C54.9294 217.836 54.9454 217.691 54.9535 217.547C55.0098 216.79 55.0822 216.042 55.1787 215.294C55.2028 215.045 55.2431 214.796 55.2752 214.554C55.3074 214.305 55.3476 214.064 55.3798 213.814C55.4522 213.332 55.5326 212.849 55.6131 212.374C55.6935 211.9 55.782 211.433 55.8705 210.975C56.0072 210.283 56.152 209.615 56.2968 208.972C56.3451 208.763 56.3933 208.554 56.4416 208.345C56.5381 207.926 56.6346 207.524 56.7392 207.138C56.7472 207.106 56.7553 207.074 56.7633 207.041C56.8518 206.688 56.9483 206.342 57.0288 206.028V206.012C57.1253 205.666 57.2218 205.328 57.3023 205.014C57.624 203.888 57.9056 202.995 58.0986 202.4C58.1227 202.312 58.1469 202.239 58.171 202.167C58.2193 202.03 58.2514 201.926 58.2756 201.837C58.3158 201.741 58.3319 201.684 58.3399 201.652C58.3399 201.652 58.3399 201.647 58.3399 201.636L58.348 201.62H56.7955L62.9892 175.952C62.9892 175.952 85.8094 168.56 95.9688 169.131C96.3388 169.147 96.7007 169.179 97.0386 169.228C97.2075 169.244 97.3764 169.276 97.5292 169.3C97.8108 169.348 98.0762 169.405 98.3336 169.477C98.6956 169.565 99.0254 169.686 99.3069 169.831C99.4919 169.919 99.6608 170.016 99.8137 170.128C99.9102 170.193 99.9987 170.265 100.071 170.346C100.152 170.418 100.224 170.49 100.288 170.571C100.417 170.74 100.53 170.909 100.602 171.11C100.642 171.206 100.666 171.303 100.698 171.407C100.851 172.083 101.085 172.815 101.39 173.595C101.447 173.756 101.511 173.917 101.591 174.086C101.728 174.448 101.897 174.826 102.074 175.204C102.171 175.429 102.283 175.663 102.396 175.896C102.709 176.555 103.055 177.223 103.425 177.907C105.074 180.972 107.182 184.221 109.008 186.892C109.691 187.889 110.335 188.806 110.906 189.603C111.059 189.812 111.196 190.005 111.332 190.19C111.574 190.528 111.799 190.825 112 191.099C112.201 191.372 112.394 191.621 112.547 191.839C112.619 191.943 112.692 192.048 112.756 192.128C112.788 192.177 112.82 192.217 112.853 192.257C112.957 192.394 113.046 192.514 113.11 192.603C113.182 192.691 113.231 192.748 113.247 192.78C113.247 192.78 113.263 192.796 113.263 192.804L110.174 192.772C115.322 196.689 131.619 203.752 131.619 203.752L130.107 204.87C145.197 210.677 199.677 208.505 200.401 208.481L199.589 208.811L197.441 209.656H197.457C197.988 209.72 198.519 209.792 199.042 209.889C201.407 210.275 203.651 210.902 205.742 211.667C206.209 211.836 206.659 212.004 207.102 212.189C207.769 212.463 208.429 212.744 209.056 213.042C216.497 216.461 221.259 221.086 221.259 221.086H217.293C220.302 222.67 226.174 230.988 231.587 239.434C234.024 243.238 236.373 247.059 238.328 250.309C241.368 255.385 243.468 259.061 243.468 259.061L243.516 259.02Z" fill="white"/>
    <path d="M243.516 259.02H18.0888C17.2362 257.685 16.7375 256.221 16.5766 254.749C16.5605 254.596 16.5525 254.435 16.5364 254.283C16.5283 254.13 16.5203 253.969 16.5203 253.816C16.5203 253.663 16.5203 253.502 16.5283 253.35C16.5364 253.012 16.5685 252.674 16.6248 252.344C16.6409 252.215 16.6651 252.087 16.6892 251.966C16.7214 251.821 16.7535 251.668 16.7857 251.532C16.8259 251.371 16.8662 251.218 16.9144 251.065C17.0029 250.767 17.1075 250.486 17.2362 250.204C17.2925 250.068 17.3649 249.923 17.4292 249.786C17.4936 249.649 17.566 249.513 17.6464 249.376C17.7268 249.239 17.7992 249.118 17.8877 248.982C18.0486 248.724 18.2336 248.467 18.4347 248.226C18.5312 248.097 18.6277 247.984 18.7404 247.864C18.8208 247.767 18.9093 247.679 18.9978 247.582C19.1828 247.405 19.3678 247.228 19.5689 247.059C19.77 246.89 19.9711 246.729 20.1882 246.585C20.3733 246.456 20.5502 246.335 20.7433 246.231C20.7594 246.215 20.7754 246.207 20.7915 246.199C20.9685 246.102 21.1374 246.006 21.3305 245.909C21.3948 245.877 21.4672 245.845 21.5316 245.812C21.7407 245.716 21.9659 245.619 22.1992 245.531C22.4083 245.451 22.6175 245.378 22.8346 245.314C29.0605 243.399 46.1134 244.944 48.06 244.944C48.1645 244.944 48.2771 244.92 48.3978 244.871C49.6124 244.389 51.4464 241.573 52.7334 239.353C52.8058 239.233 52.8782 239.112 52.9425 238.991C53.6906 237.696 54.2135 236.683 54.2617 236.586H52.3553C52.8943 235.605 53.3608 234.616 53.7791 233.618C53.9239 233.24 54.0767 232.87 54.2135 232.5C54.2859 232.331 54.3422 232.162 54.3985 232.001C54.4789 231.784 54.5513 231.575 54.6156 231.358C54.865 230.602 55.0822 229.862 55.2752 229.17C55.3718 228.824 55.4602 228.478 55.5407 228.156C55.6211 227.827 55.6935 227.505 55.7579 227.199C55.8142 226.934 55.8785 226.668 55.9268 226.419C55.967 226.234 55.9992 226.041 56.0313 225.872C56.1037 225.494 56.16 225.164 56.2164 224.858C56.2324 224.722 56.2566 224.601 56.2727 224.48C56.2968 224.376 56.3129 224.263 56.3209 224.175C56.337 224.078 56.3451 223.998 56.3531 223.917C56.3611 223.837 56.3772 223.764 56.3853 223.7C56.4094 223.483 56.4255 223.362 56.4255 223.362H54.9937C54.9535 222.952 54.9213 222.542 54.8972 222.132C54.8811 221.947 54.873 221.754 54.873 221.56C54.865 221.408 54.857 221.255 54.857 221.102C54.8409 220.643 54.8489 220.177 54.857 219.71C54.857 219.405 54.8811 219.091 54.8891 218.777C54.8972 218.512 54.9133 218.246 54.9294 217.981C54.9294 217.836 54.9454 217.691 54.9535 217.547C55.0098 216.79 55.0822 216.042 55.1787 215.294C55.2028 215.045 55.2431 214.796 55.2752 214.554C55.3074 214.305 55.3476 214.064 55.3798 213.814C55.4522 213.332 55.5326 212.849 55.6131 212.374C55.6935 211.9 55.782 211.433 55.8705 210.975C56.0072 210.283 56.152 209.615 56.2968 208.972C56.3451 208.763 56.3933 208.554 56.4416 208.345C56.5381 207.926 56.6346 207.524 56.7392 207.138C56.7472 207.106 56.7553 207.074 56.7633 207.041C56.8518 206.688 56.9483 206.342 57.0288 206.028V206.012C57.1253 205.666 57.2218 205.328 57.3023 205.014C57.624 203.888 57.9056 202.995 58.0986 202.4C58.1227 202.312 58.1469 202.239 58.171 202.167C58.2193 202.03 58.2514 201.926 58.2756 201.837C58.3158 201.741 58.3319 201.684 58.3399 201.652C58.3399 201.652 58.3399 201.647 58.3399 201.636L58.348 201.62H56.7955L62.9892 175.952C62.9892 175.952 85.8094 168.56 95.9688 169.131C96.3388 169.147 96.7007 169.179 97.0386 169.228C97.2075 169.244 97.3764 169.276 97.5292 169.3C97.8108 169.348 98.0762 169.405 98.3336 169.477C98.6956 169.565 99.0254 169.686 99.3069 169.831C99.4919 169.919 99.6608 170.016 99.8137 170.128C99.9102 170.193 99.9987 170.265 100.071 170.346C100.152 170.418 100.224 170.49 100.288 170.571C100.417 170.74 100.53 170.909 100.602 171.11C100.642 171.206 100.666 171.303 100.698 171.407C100.851 172.083 101.085 172.815 101.39 173.595C101.447 173.756 101.511 173.917 101.591 174.086C101.728 174.448 101.897 174.826 102.074 175.204C102.171 175.429 102.283 175.663 102.396 175.896C102.709 176.555 103.055 177.223 103.425 177.907C105.074 180.972 107.182 184.221 109.008 186.892C109.691 187.889 110.335 188.806 110.906 189.603C111.059 189.812 111.196 190.005 111.332 190.19C111.574 190.528 111.799 190.825 112 191.099C112.201 191.372 112.394 191.621 112.547 191.839C112.619 191.943 112.692 192.048 112.756 192.128C112.788 192.177 112.82 192.217 112.853 192.257C112.957 192.394 113.046 192.514 113.11 192.603C113.182 192.691 113.231 192.748 113.247 192.78C113.247 192.78 113.263 192.796 113.263 192.804L110.174 192.772C115.322 196.689 131.619 203.752 131.619 203.752L130.107 204.87C145.197 210.677 199.677 208.505 200.401 208.481L199.589 208.811L197.441 209.656H197.457C197.988 209.72 198.519 209.792 199.042 209.889C201.407 210.275 203.651 210.902 205.742 211.667C206.209 211.836 206.659 212.004 207.102 212.189C207.769 212.463 208.429 212.744 209.056 213.042C216.497 216.461 221.259 221.086 221.259 221.086H217.293C220.302 222.67 226.174 230.988 231.587 239.434C234.024 243.238 236.373 247.059 238.328 250.309C241.368 255.385 243.468 259.061 243.468 259.061L243.516 259.02Z" fill="white" fill-opacity="0.2"/>
  </g>
  <g opacity="0.6">
    <path d="M96.4353 183.94V193.085H94.2233C94.2233 193.085 91.4482 205.746 92.3974 210.066C92.3974 210.066 91.1827 209.535 90.3221 206.382C90.3221 206.382 84.9086 219.968 80.6534 223.612L80.396 221.182C80.396 221.182 74.1943 239.659 89.1557 259.028H81.8359C77.9346 255.939 73.5749 250.703 69.738 241.815C59.9005 219.002 62.2412 210.074 62.2412 210.074L60.0453 211.24L63.2949 198.274H60.9703C60.9703 198.274 61.1553 185.219 67.8638 181.728C74.5804 178.245 96.4353 183.956 96.4353 183.956V183.94Z" fill="white"/>
    <path d="M96.4353 183.94V193.085H94.2233C94.2233 193.085 91.4482 205.746 92.3974 210.066C92.3974 210.066 91.1827 209.535 90.3221 206.382C90.3221 206.382 84.9086 219.968 80.6534 223.612L80.396 221.182C80.396 221.182 74.1943 239.659 89.1557 259.028H81.8359C77.9346 255.939 73.5749 250.703 69.738 241.815C59.9005 219.002 62.2412 210.074 62.2412 210.074L60.0453 211.24L63.2949 198.274H60.9703C60.9703 198.274 61.1553 185.219 67.8638 181.728C74.5804 178.245 96.4353 183.956 96.4353 183.956V183.94Z" fill="white" fill-opacity="0.2"/>
  </g>
  <path opacity="0.1" d="M109.032 189.9C107.833 191.71 106.602 192.635 106.602 192.635L105.661 191.461C105.171 194.855 101.784 199.907 101.784 199.907L100.763 198.821L100.087 200.993C92.775 201.21 77.5723 195.796 77.5723 195.796L77.709 197.526C64.3483 190.882 62.4741 178.188 62.4741 178.188C62.4741 178.188 89.5656 177.545 103.457 177.867C105.106 181.969 107.214 186.321 109.048 189.9H109.032Z" fill="#9BA6BC"/>
  <path opacity="0.1" d="M129.978 259.02H18.0884C14.9112 254.049 16.6164 247.204 22.8343 245.298C29.0602 243.383 46.113 244.928 48.0596 244.928C50.0062 244.928 54.2614 236.57 54.2614 236.57H52.355C55.7495 230.425 56.4171 223.338 56.4171 223.338H54.9853C54.7842 221.472 54.7922 219.485 54.937 217.514C55.3553 219.445 55.7736 220.724 55.7736 220.724L56.4654 218.431C56.3688 221.963 59.0152 229.379 59.0152 229.379L59.9483 226.556C61.6697 237.672 69.7295 241.815 69.7295 241.815L69.8985 239.796C72.9873 242.088 79.6878 243.246 79.6878 243.246C79.5269 238.396 82.0044 232.733 82.0044 232.733H80.5163C83.6212 223.555 89.6942 219.815 89.6942 219.815C89.6942 219.815 124.886 225.614 129.334 238.147C132.173 246.134 131.12 254.218 129.978 259.028V259.02Z" fill="#9BA6BC"/>
  <path opacity="0.1" d="M189.461 230.891C189.461 230.891 178.522 230.296 171.837 230.891C165.153 231.487 153.964 238.195 154.213 243.85C154.463 249.497 167.856 253.382 167.856 253.382C167.856 253.382 151.647 249.738 146.886 250.06C142.124 250.381 140.684 259.02 140.684 259.02H135.608C135.608 259.02 133.654 249.336 137.563 246.062C141.48 242.788 150.36 246.062 150.36 246.062C150.36 246.062 148.888 233.964 157.898 228.486L157.801 230.891C157.801 230.891 163.48 225.84 175.578 226.017C175.578 226.017 172.939 227.955 173.454 227.778C173.969 227.601 178.208 226.757 189.461 230.883V230.891Z" fill="#9BA6BC"/>
  <path opacity="0.1" d="M238.367 250.269C237.829 253.55 235.536 256.599 232.222 259.02H199.331C190.555 252.867 190.241 245.917 190.241 245.917L192.904 247.107C190.981 240.359 192.389 230.891 192.389 230.891C196.709 235.38 214.695 239.321 215.25 239.442C214.743 239.072 202.154 229.878 211.469 235.195C212.306 235.677 213.166 236.104 214.035 236.49C221.017 239.538 228.618 239.538 231.635 239.393C234.072 243.198 236.421 247.019 238.375 250.269H238.367Z" fill="#9BA6BC"/>
  <path d="M80.9827 143.584C80.9827 143.584 87.2729 126.081 97.7298 121.27C99.5236 120.45 104.479 145.128 96.2176 155.891C95.5982 156.695 80.9827 143.584 80.9827 143.584Z" fill="#415CC4"/>
  <g opacity="0.3">
    <path d="M100.674 142.04C100.505 144.179 100.184 146.295 99.6607 148.306C98.9368 151.161 97.8267 153.784 96.2019 155.891C95.5906 156.695 80.9669 143.584 80.9669 143.584C80.9669 143.584 87.2652 126.073 97.7141 121.271C98.9046 120.724 101.535 131.591 100.666 142.032L100.674 142.04Z" fill="white"/>
    <path d="M100.674 142.04C100.505 144.179 100.184 146.295 99.6607 148.306C98.9368 151.161 97.8267 153.784 96.2019 155.891C95.5906 156.695 80.9669 143.584 80.9669 143.584C80.9669 143.584 87.2652 126.073 97.7141 121.271C98.9046 120.724 101.535 131.591 100.666 142.032L100.674 142.04Z" fill="white" fill-opacity="0.2"/>
  </g>
  <g opacity="0.6">
    <path d="M97.5775 123.338C97.5775 123.338 90.1611 137.511 96.1055 145.209C101.937 152.762 101.479 128.679 97.5775 123.338Z" fill="white"/>
    <path d="M97.5775 123.338C97.5775 123.338 90.1611 137.511 96.1055 145.209C101.937 152.762 101.479 128.679 97.5775 123.338Z" fill="white" fill-opacity="0.2"/>
  </g>
  <path opacity="0.1" d="M100.674 142.039C100.506 144.179 100.184 146.295 99.6609 148.306C95.993 147.429 91.3356 145.136 86.8231 140.728C86.8231 140.728 92.6065 138.484 100.674 142.039Z" fill="#9BA6BC"/>
  <path d="M121.194 164.474C119.939 161.988 110.495 160.436 110.495 160.436C110.495 160.436 110.326 154.757 107.865 151.161C105.38 147.525 94.8341 141.131 88.5037 140.769C82.1651 140.407 68.7159 142.498 68.7159 142.498L59.361 161.859C59.361 161.859 59.353 161.972 59.3369 162.181C59.3369 162.181 57.7442 166.863 57.8649 171.021L58.5727 170.354C58.5727 170.354 58.0418 176.041 60.1413 179.757L60.8733 178.944C60.8733 178.944 62.5303 181.527 64.6297 183.135C67.1474 185.428 71.0889 187.511 77.9341 188.291C85.9457 189.2 95.7189 191.983 101.655 191.766C114.984 191.284 115.676 177.995 115.676 177.995C122.835 178.373 122.448 166.943 121.21 164.474H121.194Z" fill="#415CC4"/>
  <g opacity="0.3">
    <path d="M115.668 177.995C115.668 177.995 114.976 191.284 101.647 191.766C95.7111 191.983 85.9459 189.2 77.9343 188.291C71.081 187.511 67.1396 185.428 64.6218 183.143C62.5305 181.526 60.8654 178.944 60.8654 178.944L60.1415 179.765C58.042 176.041 58.5649 170.354 58.5649 170.354L57.857 171.021C57.7364 166.871 59.329 162.181 59.329 162.181C59.3451 161.972 59.3612 161.859 59.3612 161.859L68.7161 142.498C68.7161 142.498 68.9655 142.458 69.4079 142.393C70.0836 142.297 71.2499 142.128 72.6817 141.943C77.146 141.348 84.3613 140.535 88.5038 140.769C94.8343 141.13 105.372 147.525 107.865 151.169C109.603 153.703 110.198 157.282 110.399 159.165C110.479 159.945 110.496 160.436 110.496 160.436C110.496 160.436 119.947 161.996 121.202 164.474C122.441 166.943 122.827 178.373 115.668 177.995Z" fill="white"/>
    <path d="M115.668 177.995C115.668 177.995 114.976 191.284 101.647 191.766C95.7111 191.983 85.9459 189.2 77.9343 188.291C71.081 187.511 67.1396 185.428 64.6218 183.143C62.5305 181.526 60.8654 178.944 60.8654 178.944L60.1415 179.765C58.042 176.041 58.5649 170.354 58.5649 170.354L57.857 171.021C57.7364 166.871 59.329 162.181 59.329 162.181C59.3451 161.972 59.3612 161.859 59.3612 161.859L68.7161 142.498C68.7161 142.498 68.9655 142.458 69.4079 142.393C70.0836 142.297 71.2499 142.128 72.6817 141.943C77.146 141.348 84.3613 140.535 88.5038 140.769C94.8343 141.13 105.372 147.525 107.865 151.169C109.603 153.703 110.198 157.282 110.399 159.165C110.479 159.945 110.496 160.436 110.496 160.436C110.496 160.436 119.947 161.996 121.202 164.474C122.441 166.943 122.827 178.373 115.668 177.995Z" fill="white" fill-opacity="0.2"/>
  </g>
  <g opacity="0.6">
    <path d="M119.464 176.668C118.539 177.553 117.3 178.084 115.668 177.995C115.668 177.995 115.209 186.803 107.841 190.334C106.16 191.147 104.125 191.678 101.647 191.766C95.711 191.983 85.9458 189.2 77.9342 188.291C71.0809 187.511 67.1394 185.428 64.6217 183.143C64.9998 181.349 65.7881 178.277 67.0831 176.298L65.1044 176.378C65.1044 176.378 64.1793 172.284 73.8801 170.257C83.6775 168.198 90.9973 163.717 93.2817 161.344C95.5823 158.955 94.4481 150.099 93.0726 148.603C91.6891 147.107 88.8416 146.23 89.5494 145.273C90.2734 144.308 94.6009 147.043 96.1614 149.93C97.6978 152.794 100.771 159.478 101.937 160.259C101.937 160.259 107.238 160.106 110.495 160.436C110.495 160.436 119.947 161.996 121.202 164.474C122.159 166.38 122.609 173.627 119.464 176.668Z" fill="white"/>
    <path d="M119.464 176.668C118.539 177.553 117.3 178.084 115.668 177.995C115.668 177.995 115.209 186.803 107.841 190.334C106.16 191.147 104.125 191.678 101.647 191.766C95.711 191.983 85.9458 189.2 77.9342 188.291C71.0809 187.511 67.1394 185.428 64.6217 183.143C64.9998 181.349 65.7881 178.277 67.0831 176.298L65.1044 176.378C65.1044 176.378 64.1793 172.284 73.8801 170.257C83.6775 168.198 90.9973 163.717 93.2817 161.344C95.5823 158.955 94.4481 150.099 93.0726 148.603C91.6891 147.107 88.8416 146.23 89.5494 145.273C90.2734 144.308 94.6009 147.043 96.1614 149.93C97.6978 152.794 100.771 159.478 101.937 160.259C101.937 160.259 107.238 160.106 110.495 160.436C110.495 160.436 119.947 161.996 121.202 164.474C122.159 166.38 122.609 173.627 119.464 176.668Z" fill="white" fill-opacity="0.2"/>
  </g>
  <path d="M86.6213 158.915C86.2995 160.677 84.9079 161.876 83.5003 161.594C82.1007 161.312 81.2078 159.655 81.5215 157.894C81.8272 156.124 83.2268 154.902 84.6425 155.191C86.0582 155.473 86.943 157.146 86.6213 158.923V158.915Z" fill="#04112A"/>
  <path d="M107.423 155.867C107.841 157.62 107.166 159.301 105.919 159.615C104.672 159.929 103.305 158.771 102.878 157.017C102.444 155.255 103.112 153.566 104.374 153.244C105.637 152.923 107.005 154.105 107.431 155.867H107.423Z" fill="#04112A"/>
  <path d="M120.397 164.345C117.711 162.31 112.12 163.09 110.294 166.01C108.782 168.431 116.914 171.665 116.914 171.665C116.914 171.665 122.32 165.801 120.397 164.345Z" fill="#04112A"/>
  <path opacity="0.1" d="M119.465 176.668C118.54 177.553 117.301 178.084 115.668 177.995C115.668 177.995 115.21 186.803 107.841 190.334C98.7037 189.377 93.8614 181.51 93.8614 181.51C103.731 183.28 115.684 176.66 115.684 176.66C117.703 177.738 119.457 176.66 119.457 176.66L119.465 176.668Z" fill="#9BA6BC"/>
  <path d="M115.684 176.66C115.684 176.66 116.69 177.432 117.703 177.247" stroke="#04112A" stroke-width="0.555021" stroke-linecap="round" stroke-linejoin="round"/>
  <path d="M113.576 177.995C113.576 177.995 113.464 186.578 105.717 186.586C101.261 186.586 96.1292 182.194 96.1292 182.194C96.1292 182.194 104.784 181.623 113.576 177.995Z" fill="#04112A"/>
  <path d="M100.103 182.194C100.103 182.194 103.015 186.876 106.418 190.246C109.788 193.584 113.834 188.492 109.539 179.644C109.539 179.644 105.131 181.237 100.103 182.194Z" fill="#415CC4"/>
  <path d="M116.424 168.809C116.424 168.809 117.92 174.327 115.692 176.66C113.472 178.976 98.631 183.481 94.3597 181.703C93.1693 181.205 90.9089 180.585 89.6863 178.084" stroke="#04112A" stroke-width="0.555021" stroke-linecap="round" stroke-linejoin="round"/>
  <path d="M105.533 180.899C105.533 180.899 107.085 182.813 107.801 185.339" stroke="#04112A" stroke-width="0.555021" stroke-linecap="round" stroke-linejoin="round"/>
  <path opacity="0.1" d="M72.6818 141.935C72.6335 143.552 71.8372 144.766 71.8372 144.766L69.4079 142.386C70.0917 142.289 71.25 142.12 72.6818 141.935Z" fill="#9BA6BC"/>
  <path d="M71.8371 144.774C71.8371 144.774 67.5256 127.882 57.0044 121.946C52.5561 119.436 52.7331 158.65 62.3374 166.444C71.7567 174.094 71.8371 144.774 71.8371 144.774Z" fill="#415CC4"/>
  <g opacity="0.3">
    <path d="M71.8371 144.774C71.8371 144.774 67.5256 127.882 57.0044 121.946C52.5561 119.436 52.7331 158.65 62.3374 166.444C71.7567 174.094 71.8371 144.774 71.8371 144.774Z" fill="white"/>
    <path d="M71.8371 144.774C71.8371 144.774 67.5256 127.882 57.0044 121.946C52.5561 119.436 52.7331 158.65 62.3374 166.444C71.7567 174.094 71.8371 144.774 71.8371 144.774Z" fill="white" fill-opacity="0.2"/>
  </g>
  <g opacity="0.6">
    <path d="M57.2943 123.868C57.616 122.59 65.3461 138.074 66.4079 147.107C67.4456 155.915 61.0025 161.755 61.0025 161.755C61.0025 161.755 51.3741 147.203 57.2943 123.868Z" fill="white"/>
    <path d="M57.2943 123.868C57.616 122.59 65.3461 138.074 66.4079 147.107C67.4456 155.915 61.0025 161.755 61.0025 161.755C61.0025 161.755 51.3741 147.203 57.2943 123.868Z" fill="white" fill-opacity="0.2"/>
  </g>
  <path opacity="0.2" d="M109.892 173.981C109.892 174.206 109.707 174.392 109.482 174.392C109.257 174.392 109.072 174.206 109.072 173.981C109.072 173.756 109.257 173.571 109.482 173.571C109.707 173.571 109.892 173.756 109.892 173.981Z" fill="#9BA6BC"/>
  <path opacity="0.2" d="M119.787 175.679C119.674 175.872 119.521 176 119.449 175.952C119.376 175.912 119.409 175.719 119.521 175.526C119.634 175.333 119.787 175.204 119.859 175.252C119.931 175.293 119.899 175.486 119.787 175.679Z" fill="#9BA6BC"/>
  <path opacity="0.2" d="M121.492 171.874C121.468 172.099 121.371 172.268 121.291 172.26C121.21 172.252 121.162 172.059 121.186 171.834C121.21 171.608 121.307 171.439 121.387 171.448C121.468 171.456 121.516 171.649 121.492 171.874Z" fill="#9BA6BC"/>
  <path opacity="0.2" d="M119.504 173.193C119.48 173.418 119.384 173.587 119.303 173.579C119.223 173.571 119.175 173.378 119.199 173.153C119.223 172.928 119.319 172.759 119.4 172.767C119.48 172.775 119.529 172.968 119.504 173.193Z" fill="#9BA6BC"/>
  <path opacity="0.2" d="M107.705 176.66C107.705 176.885 107.52 177.07 107.294 177.07C107.069 177.07 106.884 176.885 106.884 176.66C106.884 176.435 107.069 176.25 107.294 176.25C107.52 176.25 107.705 176.435 107.705 176.66Z" fill="#9BA6BC"/>
  <path opacity="0.2" d="M105.967 173.161C105.967 173.386 105.782 173.571 105.557 173.571C105.332 173.571 105.147 173.386 105.147 173.161C105.147 172.936 105.332 172.751 105.557 172.751C105.782 172.751 105.967 172.936 105.967 173.161Z" fill="#9BA6BC"/>
  <path opacity="0.2" d="M103.329 176.523C103.556 176.523 103.739 176.339 103.739 176.113C103.739 175.886 103.556 175.703 103.329 175.703C103.102 175.703 102.919 175.886 102.919 176.113C102.919 176.339 103.102 176.523 103.329 176.523Z" fill="#9BA6BC"/>
  <path opacity="0.2" d="M101.181 177.995C101.181 178.22 100.996 178.405 100.771 178.405C100.545 178.405 100.36 178.22 100.36 177.995C100.36 177.77 100.545 177.585 100.771 177.585C100.996 177.585 101.181 177.77 101.181 177.995Z" fill="#9BA6BC"/>
  <path opacity="0.2" d="M96.9741 176.66C97.2007 176.66 97.3844 176.476 97.3844 176.25C97.3844 176.023 97.2007 175.839 96.9741 175.839C96.7476 175.839 96.5639 176.023 96.5639 176.25C96.5639 176.476 96.7476 176.66 96.9741 176.66Z" fill="#9BA6BC"/>
  <path opacity="0.2" d="M100.771 173.981C100.771 174.206 100.586 174.392 100.361 174.392C100.135 174.392 99.9503 174.206 99.9503 173.981C99.9503 173.756 100.135 173.571 100.361 173.571C100.586 173.571 100.771 173.756 100.771 173.981Z" fill="#9BA6BC"/>
  <path opacity="0.1" d="M110.495 160.436C110.495 160.436 100.529 159.76 96.1292 161.224C96.1292 161.224 100.103 157.99 110.399 159.165C110.479 159.945 110.495 160.436 110.495 160.436Z" fill="#9BA6BC"/>
  <path d="M91.1502 216.34C91.1502 216.34 84.0797 225.341 83.4201 231.591H85.0208C85.0208 231.591 82.5916 237.664 83.3397 245.08C83.3397 245.08 77.7171 245.338 70.0996 244.903C57.2215 244.163 53.0066 249.207 57.0606 259.012H116.778C116.778 259.012 121.918 254.339 121.821 251.25L122.256 255.312C122.256 255.312 129.68 247.099 129.543 239.948C129.406 232.798 117.453 197.743 91.1582 216.332L91.1502 216.34Z" fill="#415CC4"/>
  <g opacity="0.3">
    <path d="M129.535 239.965C129.672 247.116 122.247 255.328 122.247 255.328L121.813 251.266C121.918 254.355 116.77 259.028 116.77 259.028H57.0526C53.0065 249.215 57.2134 244.18 70.0915 244.92C77.709 245.354 83.3316 245.097 83.3316 245.097C82.5916 237.68 85.0208 231.607 85.0208 231.607H83.4201C84.0877 225.357 91.1582 216.356 91.1582 216.356C117.453 197.767 129.406 232.822 129.543 239.973L129.535 239.965Z" fill="white"/>
    <path d="M129.535 239.965C129.672 247.116 122.247 255.328 122.247 255.328L121.813 251.266C121.918 254.355 116.77 259.028 116.77 259.028H57.0526C53.0065 249.215 57.2134 244.18 70.0915 244.92C77.709 245.354 83.3316 245.097 83.3316 245.097C82.5916 237.68 85.0208 231.607 85.0208 231.607H83.4201C84.0877 225.357 91.1582 216.356 91.1582 216.356C117.453 197.767 129.406 232.822 129.543 239.973L129.535 239.965Z" fill="white" fill-opacity="0.2"/>
  </g>
  <path opacity="0.1" d="M83.3315 245.08C90.9731 244.863 95.8154 247.775 96.3946 250.687C96.3946 250.687 94.9708 246.07 93.5229 245.072H95.7913C95.7913 245.072 93.1288 242.619 88.4634 242.635C84.9885 242.651 83.3315 245.08 83.3315 245.08Z" fill="#9BA6BC"/>
  <path opacity="0.1" d="M63.1661 259.02H61.2034C61.2034 259.02 57.7285 252.971 60.8173 249.609C60.8012 249.963 60.5116 256.012 63.1661 259.02Z" fill="#9BA6BC"/>
  <path opacity="0.1" d="M70.2769 259.02H67.5179C67.357 258.699 64.7026 253.47 67.0755 250.687C67.0755 250.687 67.1238 256.092 70.2769 259.02Z" fill="#9BA6BC"/>
  <path opacity="0.1" d="M78.5372 259.02H75.9632C75.9632 259.02 77.8857 257.09 77.017 255.682C77.017 255.682 79.4703 256.1 78.5372 259.02Z" fill="#9BA6BC"/>
  <path opacity="0.1" d="M231.369 241.356C231.739 241.34 232.109 241.3 232.479 241.251C231.989 241.396 231.466 241.428 230.935 241.38C231.08 241.38 231.225 241.364 231.369 241.364V241.356Z" fill="#9BA6BC"/>
  <path d="M262.926 249.263L260.135 247.365C260.135 247.365 263.175 256.092 254.448 259.02H204.809C204.166 258.715 196.508 254.886 195.205 246.552C195.205 246.552 196.114 247.735 198.696 248.033C198.696 248.033 192.374 239.361 195.318 227.915C195.318 227.915 202.565 234.189 211.212 236.538L210.15 232.773C210.15 232.773 211.236 233.723 213.07 234.986C213.239 235.106 213.416 235.227 213.593 235.339C214.406 235.886 215.339 236.482 216.376 237.077C216.569 237.198 216.77 237.31 216.98 237.415C217.1 237.479 217.229 237.551 217.358 237.624C217.551 237.728 217.752 237.841 217.953 237.938C218.291 238.115 218.637 238.292 218.991 238.452C219.272 238.589 219.546 238.718 219.827 238.847C220.036 238.943 220.261 239.048 220.479 239.136C220.897 239.313 221.315 239.49 221.758 239.659C222.007 239.755 222.264 239.844 222.522 239.932C222.739 240.013 222.956 240.085 223.173 240.15C223.222 240.166 223.27 240.182 223.318 240.206C223.503 240.262 223.696 240.327 223.881 240.383C223.897 240.383 223.913 240.383 223.929 240.399C224.83 240.664 225.763 240.898 226.705 241.059C226.898 241.091 227.091 241.123 227.284 241.155C227.372 241.171 227.469 241.187 227.557 241.195C227.734 241.219 227.919 241.244 228.096 241.26C228.225 241.276 228.354 241.292 228.482 241.3C228.715 241.324 228.941 241.34 229.166 241.356C229.753 241.396 230.34 241.404 230.936 241.372C231.08 241.372 231.225 241.356 231.37 241.356C231.74 241.34 232.11 241.3 232.48 241.252L229.118 235.581C231.386 232.942 235.022 230.288 240.604 229.685L239.623 232.983C239.623 232.983 249.766 230.626 256.917 236.675C264.076 242.724 262.926 249.263 262.926 249.263Z" fill="#415CC4"/>
  <g opacity="0.3">
    <path d="M262.926 249.263L260.135 247.365C260.135 247.365 263.175 256.092 254.448 259.02H204.809C204.166 258.715 196.508 254.886 195.205 246.552C195.205 246.552 196.114 247.735 198.696 248.033C198.696 248.033 192.374 239.361 195.318 227.915C195.318 227.915 202.565 234.189 211.212 236.538L210.15 232.773C210.15 232.773 211.236 233.723 213.07 234.986C213.239 235.098 213.408 235.219 213.593 235.339C214.406 235.886 215.339 236.482 216.376 237.077C216.569 237.19 216.77 237.302 216.98 237.415C217.1 237.479 217.229 237.551 217.358 237.624C217.551 237.728 217.752 237.833 217.953 237.938C218.291 238.115 218.637 238.292 218.991 238.452C219.272 238.589 219.546 238.718 219.827 238.847C220.036 238.943 220.261 239.04 220.479 239.136C220.897 239.313 221.323 239.49 221.758 239.659C222.007 239.755 222.264 239.844 222.522 239.932C222.739 240.013 222.956 240.085 223.173 240.15C223.222 240.166 223.27 240.182 223.318 240.206C223.503 240.262 223.696 240.319 223.881 240.383C223.897 240.383 223.913 240.383 223.929 240.399C224.83 240.664 225.763 240.898 226.705 241.059C226.898 241.091 227.091 241.123 227.284 241.155C227.372 241.171 227.469 241.187 227.557 241.195C227.734 241.219 227.919 241.252 228.096 241.26C228.225 241.276 228.354 241.292 228.482 241.3C228.707 241.324 228.941 241.34 229.166 241.356C229.753 241.396 230.34 241.404 230.936 241.372C231.08 241.372 231.225 241.356 231.37 241.356C231.74 241.34 232.11 241.3 232.48 241.252L229.118 235.581C231.386 232.942 235.022 230.288 240.604 229.685L239.623 232.983C239.623 232.983 249.766 230.626 256.917 236.675C264.076 242.724 262.926 249.263 262.926 249.263Z" fill="white"/>
    <path d="M262.926 249.263L260.135 247.365C260.135 247.365 263.175 256.092 254.448 259.02H204.809C204.166 258.715 196.508 254.886 195.205 246.552C195.205 246.552 196.114 247.735 198.696 248.033C198.696 248.033 192.374 239.361 195.318 227.915C195.318 227.915 202.565 234.189 211.212 236.538L210.15 232.773C210.15 232.773 211.236 233.723 213.07 234.986C213.239 235.098 213.408 235.219 213.593 235.339C214.406 235.886 215.339 236.482 216.376 237.077C216.569 237.19 216.77 237.302 216.98 237.415C217.1 237.479 217.229 237.551 217.358 237.624C217.551 237.728 217.752 237.833 217.953 237.938C218.291 238.115 218.637 238.292 218.991 238.452C219.272 238.589 219.546 238.718 219.827 238.847C220.036 238.943 220.261 239.04 220.479 239.136C220.897 239.313 221.323 239.49 221.758 239.659C222.007 239.755 222.264 239.844 222.522 239.932C222.739 240.013 222.956 240.085 223.173 240.15C223.222 240.166 223.27 240.182 223.318 240.206C223.503 240.262 223.696 240.319 223.881 240.383C223.897 240.383 223.913 240.383 223.929 240.399C224.83 240.664 225.763 240.898 226.705 241.059C226.898 241.091 227.091 241.123 227.284 241.155C227.372 241.171 227.469 241.187 227.557 241.195C227.734 241.219 227.919 241.252 228.096 241.26C228.225 241.276 228.354 241.292 228.482 241.3C228.707 241.324 228.941 241.34 229.166 241.356C229.753 241.396 230.34 241.404 230.936 241.372C231.08 241.372 231.225 241.356 231.37 241.356C231.74 241.34 232.11 241.3 232.48 241.252L229.118 235.581C231.386 232.942 235.022 230.288 240.604 229.685L239.623 232.983C239.623 232.983 249.766 230.626 256.917 236.675C264.076 242.724 262.926 249.263 262.926 249.263Z" fill="white" fill-opacity="0.2"/>
  </g>
  <path opacity="0.1" d="M239.18 237.463C237 240.793 232.48 241.244 232.48 241.244L229.117 235.573C234.619 233.441 237.958 235.991 237.958 235.991C238.689 235.331 238.842 234.27 238.842 234.27C238.842 234.27 241.352 234.133 239.188 237.463H239.18Z" fill="#9BA6BC"/>
  <g opacity="0.6">
    <path d="M230.791 252.449C230.791 252.449 228.739 255.714 216.609 254.387C216.609 254.387 218.363 255.843 221.235 256.511C221.235 256.511 219.899 258.039 216.457 259.012H204.817C204.174 258.707 196.516 254.878 195.213 246.544C195.213 246.544 196.122 247.727 198.704 248.024C198.704 248.024 192.381 239.353 195.326 227.907C195.326 227.907 202.573 234.181 211.22 236.53L210.158 232.765C210.158 232.765 216.312 238.131 223.929 240.391C224.846 241.437 226.149 242.563 227.959 243.464C227.959 243.464 222.658 243.737 219.996 242.514C219.996 242.514 221.122 249.32 230.791 252.449Z" fill="white"/>
    <path d="M230.791 252.449C230.791 252.449 228.739 255.714 216.609 254.387C216.609 254.387 218.363 255.843 221.235 256.511C221.235 256.511 219.899 258.039 216.457 259.012H204.817C204.174 258.707 196.516 254.878 195.213 246.544C195.213 246.544 196.122 247.727 198.704 248.024C198.704 248.024 192.381 239.353 195.326 227.907C195.326 227.907 202.573 234.181 211.22 236.53L210.158 232.765C210.158 232.765 216.312 238.131 223.929 240.391C224.846 241.437 226.149 242.563 227.959 243.464C227.959 243.464 222.658 243.737 219.996 242.514C219.996 242.514 221.122 249.32 230.791 252.449Z" fill="white" fill-opacity="0.2"/>
  </g>
  <path d="M169.087 172.14C169.087 172.14 180.734 179.049 181.016 183.642C181.016 183.642 222.119 206.768 208.767 259.013H148.157C148.157 259.013 139.912 240.214 145.719 228.189L145.197 228.285C147.135 225.333 148.728 225.784 148.728 225.784C148.728 225.784 150.602 203.543 149.87 197.108C149.13 190.673 145.727 176.636 145.727 176.636L169.103 172.132L169.087 172.14Z" fill="#04112A"/>
  <g opacity="0.2">
    <path d="M211.437 239.233C211.437 239.724 211.421 240.214 211.413 240.721C211.341 243.609 211.091 246.617 210.633 249.746C210.569 250.18 210.504 250.607 210.44 251.049C210.03 253.631 209.475 256.294 208.775 259.029H148.165C148.165 259.029 147.409 257.307 146.524 254.58C145.671 251.966 144.69 248.419 144.135 244.574C143.331 239.152 143.363 233.112 145.736 228.205L145.213 228.301C146.476 226.395 147.578 225.904 148.205 225.8C148.551 225.743 148.744 225.8 148.744 225.8C148.744 225.8 148.849 224.585 148.993 222.639C149.476 216.268 150.449 202.055 149.886 197.124C149.693 195.443 149.315 193.222 148.857 190.874C147.594 184.286 145.744 176.652 145.744 176.652L169.119 172.148C169.119 172.148 170.084 172.719 171.46 173.644C174.613 175.759 179.946 179.709 180.895 182.878C180.984 183.144 181.032 183.401 181.04 183.65C181.04 183.65 181.458 183.884 182.19 184.358C183.348 185.106 185.303 186.458 187.66 188.412C188.311 188.967 189.003 189.554 189.711 190.198C191.553 191.863 193.548 193.85 195.575 196.174C196.226 196.931 196.886 197.727 197.546 198.555C197.546 198.555 197.546 198.555 197.562 198.555C199.235 200.671 200.884 203.02 202.436 205.602C203.064 206.656 203.667 207.733 204.254 208.86C205.726 211.675 207.053 214.731 208.163 218.046C208.429 218.834 208.678 219.63 208.904 220.435C209.652 223 210.263 225.711 210.697 228.567C210.802 229.234 210.89 229.902 210.971 230.578C211.309 233.337 211.486 236.208 211.461 239.225L211.437 239.233Z" fill="white"/>
    <path d="M211.437 239.233C211.437 239.724 211.421 240.214 211.413 240.721C211.341 243.609 211.091 246.617 210.633 249.746C210.569 250.18 210.504 250.607 210.44 251.049C210.03 253.631 209.475 256.294 208.775 259.029H148.165C148.165 259.029 147.409 257.307 146.524 254.58C145.671 251.966 144.69 248.419 144.135 244.574C143.331 239.152 143.363 233.112 145.736 228.205L145.213 228.301C146.476 226.395 147.578 225.904 148.205 225.8C148.551 225.743 148.744 225.8 148.744 225.8C148.744 225.8 148.849 224.585 148.993 222.639C149.476 216.268 150.449 202.055 149.886 197.124C149.693 195.443 149.315 193.222 148.857 190.874C147.594 184.286 145.744 176.652 145.744 176.652L169.119 172.148C169.119 172.148 170.084 172.719 171.46 173.644C174.613 175.759 179.946 179.709 180.895 182.878C180.984 183.144 181.032 183.401 181.04 183.65C181.04 183.65 181.458 183.884 182.19 184.358C183.348 185.106 185.303 186.458 187.66 188.412C188.311 188.967 189.003 189.554 189.711 190.198C191.553 191.863 193.548 193.85 195.575 196.174C196.226 196.931 196.886 197.727 197.546 198.555C197.546 198.555 197.546 198.555 197.562 198.555C199.235 200.671 200.884 203.02 202.436 205.602C203.064 206.656 203.667 207.733 204.254 208.86C205.726 211.675 207.053 214.731 208.163 218.046C208.429 218.834 208.678 219.63 208.904 220.435C209.652 223 210.263 225.711 210.697 228.567C210.802 229.234 210.89 229.902 210.971 230.578C211.309 233.337 211.486 236.208 211.461 239.225L211.437 239.233Z" fill="white" fill-opacity="0.2"/>
  </g>
  <g opacity="0.2">
    <path d="M157.318 181.31C157.318 181.31 153.063 184.873 152.709 187.125L151.736 186.586C151.736 186.586 152.042 192.925 151.486 196.48L150.827 194.719C150.827 194.719 150.899 198.62 150.143 202.585C150.103 200.454 150.014 198.539 149.854 197.116C149.114 190.681 145.711 176.644 145.711 176.644L148.502 176.105C153.457 178.695 157.318 181.31 157.318 181.31Z" fill="white"/>
    <path d="M157.318 181.31C157.318 181.31 153.063 184.873 152.709 187.125L151.736 186.586C151.736 186.586 152.042 192.925 151.486 196.48L150.827 194.719C150.827 194.719 150.899 198.62 150.143 202.585C150.103 200.454 150.014 198.539 149.854 197.116C149.114 190.681 145.711 176.644 145.711 176.644L148.502 176.105C153.457 178.695 157.318 181.31 157.318 181.31Z" fill="white" fill-opacity="0.2"/>
  </g>
  <path opacity="0.2" d="M171.427 173.636C170.502 176.524 167.968 182.814 162.836 185.106V184.278C162.836 184.278 158.879 185.822 155.348 188.662L155.709 186.586C155.709 186.586 151.937 187.922 148.824 190.874C147.561 184.286 145.711 176.652 145.711 176.652L169.086 172.148C169.086 172.148 170.052 172.719 171.427 173.644V173.636Z" fill="#000001"/>
  <path opacity="0.2" d="M148.72 225.792H148.181C148.527 225.735 148.72 225.792 148.72 225.792Z" fill="#000001"/>
  <path opacity="0.2" d="M161.389 236.458C161.389 236.458 155.919 227.569 148.72 225.792C148.72 225.792 148.824 224.577 148.969 222.63C150.521 222.421 151.736 222.598 151.736 222.598L153.618 215.576C155.589 214.418 158.573 208.498 158.573 208.498V210.203C161.051 208.288 159.989 201.459 159.989 201.459C161.566 203.76 160.56 210.203 160.56 210.203L159.989 208.514C159.989 208.514 160.182 211.055 157.326 213.243C154.471 215.439 155.058 221.183 155.058 221.183C158.992 225.808 161.389 236.466 161.389 236.466V236.458Z" fill="#000001"/>
  <path d="M173.704 161.256C177.508 151.885 172.473 141.605 172.473 141.605C166.722 143.528 162.893 146.866 160.544 149.585C158.469 149.311 155.235 148.957 152.5 148.941C151.253 146.319 147.738 140.27 141.343 138.983C141.343 138.983 137.555 150.59 140.684 156.993C139.244 158.908 137.973 160.822 137.153 162.278C134.892 166.308 137.547 171.914 139.55 175.043C141.553 178.172 147.457 182.09 153.296 182.709C161.823 183.626 171.307 177.489 173.261 174.038C174.299 172.204 175.168 166.662 173.696 161.256H173.704Z" fill="#04112A"/>
  <g opacity="0.2">
    <path d="M173.27 174.038C173.141 174.271 172.972 174.521 172.763 174.778C172.65 174.931 172.521 175.084 172.377 175.245C169.441 178.559 161.815 183.015 154.56 182.798C154.141 182.798 153.715 182.757 153.297 182.717C149.299 182.291 145.269 180.32 142.486 178.108C141.199 177.095 140.177 176.025 139.542 175.043C138.416 173.29 137.089 170.764 136.55 168.158C136.509 167.981 136.477 167.804 136.445 167.635C136.131 165.769 136.244 163.903 137.153 162.278C137.153 162.278 137.153 162.278 137.169 162.262C137.282 162.069 137.394 161.868 137.523 161.659C137.603 161.514 137.692 161.361 137.788 161.216C138.561 159.953 139.574 158.473 140.684 156.993C140.379 156.382 140.153 155.722 139.968 155.031C138.239 148.475 141.344 138.983 141.344 138.983C147.328 140.19 150.787 145.555 152.235 148.394C152.332 148.587 152.428 148.78 152.509 148.949C152.533 148.949 152.549 148.949 152.573 148.949C152.677 148.949 152.782 148.949 152.887 148.949C153.128 148.949 153.369 148.949 153.619 148.965C153.868 148.965 154.125 148.974 154.383 148.998C154.431 148.998 154.487 149.006 154.536 149.006C155.099 149.038 155.662 149.078 156.225 149.118C156.273 149.118 156.321 149.118 156.37 149.134C157.11 149.191 157.825 149.263 158.501 149.336C158.525 149.336 158.557 149.344 158.582 149.344C158.799 149.368 159.016 149.392 159.217 149.424C159.708 149.48 160.158 149.529 160.568 149.585C162.909 146.866 166.746 143.536 172.489 141.605C172.489 141.605 177.525 151.885 173.72 161.256C174.452 163.927 174.605 166.622 174.452 168.89C174.42 169.316 174.38 169.727 174.331 170.113C174.114 171.882 173.712 173.274 173.286 174.03L173.27 174.038Z" fill="white"/>
    <path d="M173.27 174.038C173.141 174.271 172.972 174.521 172.763 174.778C172.65 174.931 172.521 175.084 172.377 175.245C169.441 178.559 161.815 183.015 154.56 182.798C154.141 182.798 153.715 182.757 153.297 182.717C149.299 182.291 145.269 180.32 142.486 178.108C141.199 177.095 140.177 176.025 139.542 175.043C138.416 173.29 137.089 170.764 136.55 168.158C136.509 167.981 136.477 167.804 136.445 167.635C136.131 165.769 136.244 163.903 137.153 162.278C137.153 162.278 137.153 162.278 137.169 162.262C137.282 162.069 137.394 161.868 137.523 161.659C137.603 161.514 137.692 161.361 137.788 161.216C138.561 159.953 139.574 158.473 140.684 156.993C140.379 156.382 140.153 155.722 139.968 155.031C138.239 148.475 141.344 138.983 141.344 138.983C147.328 140.19 150.787 145.555 152.235 148.394C152.332 148.587 152.428 148.78 152.509 148.949C152.533 148.949 152.549 148.949 152.573 148.949C152.677 148.949 152.782 148.949 152.887 148.949C153.128 148.949 153.369 148.949 153.619 148.965C153.868 148.965 154.125 148.974 154.383 148.998C154.431 148.998 154.487 149.006 154.536 149.006C155.099 149.038 155.662 149.078 156.225 149.118C156.273 149.118 156.321 149.118 156.37 149.134C157.11 149.191 157.825 149.263 158.501 149.336C158.525 149.336 158.557 149.344 158.582 149.344C158.799 149.368 159.016 149.392 159.217 149.424C159.708 149.48 160.158 149.529 160.568 149.585C162.909 146.866 166.746 143.536 172.489 141.605C172.489 141.605 177.525 151.885 173.72 161.256C174.452 163.927 174.605 166.622 174.452 168.89C174.42 169.316 174.38 169.727 174.331 170.113C174.114 171.882 173.712 173.274 173.286 174.03L173.27 174.038Z" fill="white" fill-opacity="0.2"/>
  </g>
  <path opacity="0.2" d="M154.592 182.685C154.166 182.701 153.739 182.685 153.313 182.661C149.275 182.371 145.293 180.248 142.591 177.762C141.022 174.955 141.939 172.172 141.939 172.172L142.116 172.847C142.036 172.019 142.172 171.013 143.001 170.233V171.665C143.001 171.665 143.781 167.112 147.473 168.464L150.063 168.89C154.093 168.303 155.951 173.925 155.951 173.925L156.305 172.67C156.305 172.67 158.791 174.641 159.024 177.223L159.981 176.781C159.981 176.781 159.088 181.583 154.592 182.677V182.685Z" fill="#C8C8C8"/>
  <path d="M161.059 164.973C160.914 166.59 159.933 167.828 158.855 167.732C157.777 167.635 157.021 166.252 157.166 164.627C157.311 163.01 158.292 161.771 159.37 161.868C160.448 161.964 161.204 163.348 161.059 164.973Z" fill="#04112A"/>
  <path d="M146.589 163.002C146.203 164.579 145.036 165.656 143.991 165.399C142.945 165.142 142.406 163.653 142.792 162.077C143.178 160.5 144.344 159.422 145.39 159.68C146.436 159.937 146.975 161.425 146.589 163.002Z" fill="#04112A"/>
  <path d="M146.387 168.391C146.387 168.391 147.795 167.345 149.516 168.761C150.071 169.212 147.916 170.796 147.916 170.796C147.916 170.796 145.921 169.059 146.387 168.391Z" fill="#04112A"/>
  <path d="M147.924 169.365C147.924 169.365 147.433 172.952 147.843 173.756C148.261 174.561 154.455 177.135 153.812 173.25" stroke="#04112A" stroke-width="0.643503" stroke-linecap="round" stroke-linejoin="round"/>
  <path d="M147.843 173.756C147.843 173.756 146.693 174.722 145.02 173.539C143.347 172.357 144.272 171.311 144.272 171.311" stroke="#04112A" stroke-width="0.643503" stroke-linecap="round" stroke-linejoin="round"/>
  <path opacity="0.4" d="M174.316 170.113C173.061 168.769 169.883 166.477 162.097 164.763C162.097 164.763 170.841 165.294 174.436 168.89C174.404 169.316 174.364 169.726 174.316 170.113Z" fill="#000001"/>
  <path opacity="0.4" d="M150.586 162.31C150.562 162.503 151.004 153.936 154.528 149.006C155.091 149.038 155.654 149.078 156.217 149.118C156.265 149.118 156.313 149.118 156.362 149.134C154.576 151.523 151.624 156.237 150.586 162.31Z" fill="#000001"/>
  <g opacity="0.2">
    <path d="M161.381 152.714C161.381 152.714 166.496 145.233 171.934 142.699C171.934 142.699 176.599 151.105 172.626 160.677C172.626 160.677 168.91 159.857 167.767 158.28C167.767 158.28 168.62 156.028 170.164 155.224C170.164 155.224 168.186 155.835 167.413 156.865C167.413 156.865 167.993 153.148 169.457 151.419C169.457 151.419 166.617 153.446 165.885 156.221C165.885 156.221 162.08 154.926 161.397 152.722L161.381 152.714Z" fill="white"/>
    <path d="M161.381 152.714C161.381 152.714 166.496 145.233 171.934 142.699C171.934 142.699 176.599 151.105 172.626 160.677C172.626 160.677 168.91 159.857 167.767 158.28C167.767 158.28 168.62 156.028 170.164 155.224C170.164 155.224 168.186 155.835 167.413 156.865C167.413 156.865 167.993 153.148 169.457 151.419C169.457 151.419 166.617 153.446 165.885 156.221C165.885 156.221 162.08 154.926 161.397 152.722L161.381 152.714Z" fill="white" fill-opacity="0.2"/>
  </g>
  <path opacity="0.2" d="M160.552 149.577C160.134 150.277 159.651 151.733 159.651 151.733C159.651 151.733 158.662 150.622 158.565 149.344C159.289 149.424 159.973 149.504 160.552 149.585V149.577Z" fill="#000001"/>
  <g opacity="0.2">
    <path d="M141.303 156.543C141.303 156.543 144.022 153.76 145.542 152.955C145.542 152.955 144.36 150.695 143.861 150.478C143.861 150.478 145.044 150.888 145.88 151.749C145.88 151.749 145.647 149.328 144.666 148.145C144.666 148.145 146.532 149.858 147.199 151.644L149.629 150.188C149.629 150.188 147.674 143.673 141.609 139.932C141.609 139.932 138.158 150.317 141.303 156.543Z" fill="white"/>
    <path d="M141.303 156.543C141.303 156.543 144.022 153.76 145.542 152.955C145.542 152.955 144.36 150.695 143.861 150.478C143.861 150.478 145.044 150.888 145.88 151.749C145.88 151.749 145.647 149.328 144.666 148.145C144.666 148.145 146.532 149.858 147.199 151.644L149.629 150.188C149.629 150.188 147.674 143.673 141.609 139.932C141.609 139.932 138.158 150.317 141.303 156.543Z" fill="white" fill-opacity="0.2"/>
  </g>
  <path opacity="0.2" d="M137.177 162.262C137.989 160.806 139.26 158.908 140.692 156.993C140.386 156.382 140.161 155.722 139.976 155.031C143.226 151.99 148.213 151.049 148.213 151.049C141.287 156.004 137.41 161.9 137.177 162.262Z" fill="#000001"/>
  <path opacity="0.4" d="M159.209 149.416C158.646 150.043 158.123 150.735 157.664 151.443C157.302 151.99 156.989 152.577 156.739 153.18C156.498 153.768 156.337 154.459 156.015 155.071C155.364 156.285 154.447 157.283 153.586 158.304C152.75 159.302 151.865 160.323 151.495 161.602C151.8 160.299 152.653 159.229 153.457 158.2C154.286 157.146 155.147 156.108 155.718 154.918C156.007 154.331 156.12 153.695 156.353 153.036C156.587 152.384 156.892 151.773 157.23 151.186C157.616 150.542 158.034 149.931 158.493 149.335C158.517 149.335 158.549 149.343 158.573 149.343C158.791 149.368 159.008 149.392 159.209 149.424V149.416Z" fill="#000001"/>
  <path opacity="0.4" d="M150.048 157.058C150.048 158.288 150.088 159.519 149.863 160.734C150.031 159.519 149.935 158.288 149.879 157.066C149.863 156.446 149.83 155.835 149.895 155.208C149.951 154.58 150.216 153.969 150.482 153.43C150.763 152.883 150.965 152.336 151.19 151.741C151.431 151.162 151.745 150.615 152.091 150.092C152.34 149.698 152.613 149.328 152.887 148.958C153.128 148.958 153.37 148.958 153.619 148.974C153.225 149.424 152.863 149.883 152.509 150.373C152.163 150.864 151.833 151.371 151.584 151.91C151.343 152.449 151.085 153.052 150.788 153.583C150.482 154.122 150.225 154.644 150.144 155.24C150.056 155.835 150.056 156.446 150.048 157.058Z" fill="#000001"/>
  <path opacity="0.4" d="M172.763 174.77C172.65 174.923 172.521 175.076 172.376 175.237C170.671 174.48 169.07 173.539 167.598 172.413C166.577 171.609 165.563 170.7 164.96 169.525C164.357 168.399 163.174 167.595 161.887 167.45C163.182 167.539 164.429 168.303 165.105 169.437C165.748 170.555 166.754 171.392 167.791 172.14C169.336 173.218 171.009 174.094 172.754 174.77H172.763Z" fill="#000001"/>
  <path opacity="0.4" d="M141.931 160.886C141.191 160.862 140.435 160.87 139.711 161.007C138.979 161.136 138.271 161.337 137.596 161.618C137.572 161.618 137.555 161.634 137.531 161.651C137.612 161.506 137.7 161.353 137.797 161.208C138.416 161.023 139.052 160.902 139.687 160.838C140.435 160.75 141.191 160.806 141.931 160.886Z" fill="#000001"/>
  <path opacity="0.4" d="M141.287 163.871C140.427 164.072 139.687 164.554 139.059 165.142C138.424 165.721 137.885 166.404 137.362 167.088C137.088 167.442 136.823 167.804 136.549 168.158C136.509 167.981 136.477 167.804 136.445 167.635C136.654 167.378 136.879 167.128 137.096 166.879C137.668 166.219 138.263 165.576 138.947 165.021C139.622 164.474 140.419 164.023 141.279 163.879L141.287 163.871Z" fill="#000001"/>
  <path opacity="0.2" d="M183.147 248.081C183.147 248.081 157.238 258.763 146.508 254.572C145.655 251.958 144.674 248.411 144.119 244.566C151.189 246.826 169.384 250.872 183.147 248.081Z" fill="#000001"/>
  <path d="M186.212 246.159C186.212 246.159 150.819 258.602 134.265 244.711C114.405 228.044 131.836 206.39 127.573 202.585C123.31 198.789 117.341 198.869 114.727 211.619C112.113 224.368 113.56 259.013 148.157 259.013C182.753 259.013 190.483 259.013 190.483 259.013L186.22 246.159H186.212Z" fill="#04112A"/>
  <g opacity="0.2">
    <path d="M190.475 259.02H148.157C147.095 259.02 146.057 258.988 145.06 258.916C144.609 258.892 144.159 258.852 143.716 258.811C138.633 258.337 134.377 257.042 130.822 255.143C130.412 254.926 130.01 254.701 129.632 254.46C126.253 252.449 123.551 249.883 121.395 246.987C121.113 246.601 120.84 246.223 120.574 245.829C118.451 242.659 116.939 239.16 115.893 235.589C115.756 235.138 115.627 234.688 115.523 234.238C114.686 231.036 114.22 227.819 114.011 224.762C113.978 224.295 113.954 223.829 113.938 223.37C113.818 220.644 113.906 218.078 114.123 215.825C114.276 214.265 114.485 212.841 114.735 211.618C117.349 198.869 123.309 198.781 127.58 202.585C129.503 204.299 127.017 209.632 125.529 216.509C125.095 218.504 124.741 220.636 124.612 222.848C124.588 223.29 124.564 223.74 124.556 224.199C124.516 226.451 124.725 228.776 125.312 231.109C125.425 231.551 125.545 232.001 125.69 232.444C126.422 234.752 127.548 237.069 129.213 239.353C129.479 239.731 129.776 240.11 130.074 240.48C131.24 241.919 132.624 243.335 134.273 244.719C135.029 245.354 135.825 245.933 136.654 246.464C137.056 246.713 137.466 246.963 137.885 247.188C139.984 248.354 142.26 249.231 144.666 249.867C145.1 249.979 145.534 250.092 145.977 250.188C149.46 250.969 153.152 251.29 156.828 251.29C157.294 251.29 157.761 251.29 158.227 251.274C161.871 251.194 165.475 250.824 168.829 250.317C169.32 250.245 169.802 250.172 170.285 250.092C179.366 248.58 186.22 246.166 186.22 246.166L190.475 259.02Z" fill="white"/>
    <path d="M190.475 259.02H148.157C147.095 259.02 146.057 258.988 145.06 258.916C144.609 258.892 144.159 258.852 143.716 258.811C138.633 258.337 134.377 257.042 130.822 255.143C130.412 254.926 130.01 254.701 129.632 254.46C126.253 252.449 123.551 249.883 121.395 246.987C121.113 246.601 120.84 246.223 120.574 245.829C118.451 242.659 116.939 239.16 115.893 235.589C115.756 235.138 115.627 234.688 115.523 234.238C114.686 231.036 114.22 227.819 114.011 224.762C113.978 224.295 113.954 223.829 113.938 223.37C113.818 220.644 113.906 218.078 114.123 215.825C114.276 214.265 114.485 212.841 114.735 211.618C117.349 198.869 123.309 198.781 127.58 202.585C129.503 204.299 127.017 209.632 125.529 216.509C125.095 218.504 124.741 220.636 124.612 222.848C124.588 223.29 124.564 223.74 124.556 224.199C124.516 226.451 124.725 228.776 125.312 231.109C125.425 231.551 125.545 232.001 125.69 232.444C126.422 234.752 127.548 237.069 129.213 239.353C129.479 239.731 129.776 240.11 130.074 240.48C131.24 241.919 132.624 243.335 134.273 244.719C135.029 245.354 135.825 245.933 136.654 246.464C137.056 246.713 137.466 246.963 137.885 247.188C139.984 248.354 142.26 249.231 144.666 249.867C145.1 249.979 145.534 250.092 145.977 250.188C149.46 250.969 153.152 251.29 156.828 251.29C157.294 251.29 157.761 251.29 158.227 251.274C161.871 251.194 165.475 250.824 168.829 250.317C169.32 250.245 169.802 250.172 170.285 250.092C179.366 248.58 186.22 246.166 186.22 246.166L190.475 259.02Z" fill="white" fill-opacity="0.2"/>
  </g>
  <path opacity="0.4" d="M125.522 216.509C121.58 214.836 117.132 215.214 114.116 215.825C114.268 214.265 114.478 212.841 114.727 211.618C117.341 198.869 123.302 198.781 127.573 202.585C129.495 204.299 127.01 209.632 125.522 216.509Z" fill="#000001"/>
  <path d="M11.8554 241.638C11.8554 241.147 12.0324 239.49 13.2872 238.686C13.7055 238.42 14.2444 238.244 14.9362 238.244C14.9362 238.244 14.2927 236.957 16.5208 236.844C18.749 236.739 17.9044 236.57 18.6444 235.597C19.3844 234.616 21.508 234.994 21.508 234.994C21.508 234.994 20.9771 234.101 23.9452 233.353C26.9214 232.605 27.6052 234.093 27.6052 234.093C27.6052 234.093 28.6026 232.725 29.8816 233.353C31.1605 233.98 31.4823 235.597 31.4823 235.597C31.4823 235.597 32.8578 234.238 34.2413 235.597L35.6168 236.957C35.6168 236.957 36.8877 237.005 37.9495 237.729C39.0113 238.445 38.7941 238.445 39.5904 238.445C40.073 238.445 40.9498 238.171 41.8748 238.509C42.4942 238.734 43.1297 239.225 43.6767 240.238C45.0602 242.788 11.8554 241.638 11.8554 241.638Z" fill="#415CC4"/>
  <path d="M51.9536 259.021H3.26454L6.82794 240.673C6.91642 240.222 7.18187 239.844 7.55188 239.611C7.80928 239.45 8.1069 239.354 8.42865 239.354H46.7895C46.9986 239.354 47.1997 239.394 47.3767 239.466C47.8915 239.659 48.2776 240.11 48.3902 240.673L49.2187 244.936L50.007 248.998L50.4735 251.419L51.0366 254.283L51.9536 259.021Z" fill="#04112A"/>
  <g opacity="0.4">
    <path d="M51.0368 254.283H29.3829C26.8008 254.283 24.5486 252.192 24.3555 249.609C24.3555 249.489 24.3394 249.36 24.3394 249.239C24.3394 246.834 26.2056 244.936 28.667 244.936H49.2189L50.0072 248.998L50.4737 251.419L51.0368 254.283Z" fill="white"/>
    <path d="M51.0368 254.283H29.3829C26.8008 254.283 24.5486 252.192 24.3555 249.609C24.3555 249.489 24.3394 249.36 24.3394 249.239C24.3394 246.834 26.2056 244.936 28.667 244.936H49.2189L50.0072 248.998L50.4737 251.419L51.0368 254.283Z" fill="white" fill-opacity="0.2"/>
  </g>
  <g opacity="0.2">
    <path d="M41.8747 238.509C41.7782 238.63 41.6655 238.734 41.5288 238.815C41.2553 238.967 40.9336 239.008 40.6279 239.024C39.2765 239.088 37.9493 238.75 36.6462 238.412C36.3486 238.332 36.0429 238.252 35.7453 238.179C35.6568 238.155 35.5683 238.131 35.4879 238.147C35.319 238.171 35.1742 238.324 35.0053 238.3C34.8605 238.284 34.764 238.147 34.6272 238.091C34.2813 237.962 33.9435 238.429 33.5815 238.364C33.4689 238.348 33.3724 238.276 33.2678 238.244C33.115 238.203 32.9541 238.227 32.7932 238.227C32.1497 238.252 31.5062 237.882 31.2006 237.31C30.7099 237.954 30.0342 238.509 29.2379 238.654C28.4416 238.799 27.5165 238.437 27.1948 237.697C27.1385 237.568 27.0902 237.415 26.9615 237.351C26.7845 237.27 26.5915 237.415 26.4869 237.584C26.3904 237.745 26.3421 237.946 26.2054 238.075C26.0284 238.244 25.763 238.26 25.5136 238.268C24.4277 238.292 23.2533 238.292 22.3846 237.632C22.2639 237.536 22.1272 237.423 21.9663 237.455C21.8215 237.471 21.733 237.616 21.6446 237.729C20.6873 239.072 18.5236 239.321 17.2848 238.235C17.0596 238.557 16.5689 238.662 16.2311 238.453C16.1426 238.396 16.0622 238.316 15.9576 238.316C15.8289 238.308 15.7243 238.42 15.6198 238.509C15.1452 238.927 13.9708 238.984 13.2871 238.686C13.7053 238.42 14.2443 238.244 14.936 238.244C14.936 238.244 14.2925 236.957 16.5207 236.844C18.7488 236.739 17.9042 236.57 18.6442 235.597C19.3843 234.616 21.5078 234.994 21.5078 234.994C21.5078 234.994 20.9769 234.101 23.9451 233.353C26.9213 232.605 27.605 234.093 27.605 234.093C27.605 234.093 28.6024 232.725 29.8814 233.353C31.1604 233.98 31.4821 235.597 31.4821 235.597C31.4821 235.597 32.8576 234.238 34.2411 235.597L35.6166 236.957C35.6166 236.957 36.8875 237.005 37.9493 237.729C39.0111 238.445 38.7939 238.445 39.5902 238.445C40.0729 238.445 40.9496 238.171 41.8747 238.509Z" fill="white"/>
    <path d="M41.8747 238.509C41.7782 238.63 41.6655 238.734 41.5288 238.815C41.2553 238.967 40.9336 239.008 40.6279 239.024C39.2765 239.088 37.9493 238.75 36.6462 238.412C36.3486 238.332 36.0429 238.252 35.7453 238.179C35.6568 238.155 35.5683 238.131 35.4879 238.147C35.319 238.171 35.1742 238.324 35.0053 238.3C34.8605 238.284 34.764 238.147 34.6272 238.091C34.2813 237.962 33.9435 238.429 33.5815 238.364C33.4689 238.348 33.3724 238.276 33.2678 238.244C33.115 238.203 32.9541 238.227 32.7932 238.227C32.1497 238.252 31.5062 237.882 31.2006 237.31C30.7099 237.954 30.0342 238.509 29.2379 238.654C28.4416 238.799 27.5165 238.437 27.1948 237.697C27.1385 237.568 27.0902 237.415 26.9615 237.351C26.7845 237.27 26.5915 237.415 26.4869 237.584C26.3904 237.745 26.3421 237.946 26.2054 238.075C26.0284 238.244 25.763 238.26 25.5136 238.268C24.4277 238.292 23.2533 238.292 22.3846 237.632C22.2639 237.536 22.1272 237.423 21.9663 237.455C21.8215 237.471 21.733 237.616 21.6446 237.729C20.6873 239.072 18.5236 239.321 17.2848 238.235C17.0596 238.557 16.5689 238.662 16.2311 238.453C16.1426 238.396 16.0622 238.316 15.9576 238.316C15.8289 238.308 15.7243 238.42 15.6198 238.509C15.1452 238.927 13.9708 238.984 13.2871 238.686C13.7053 238.42 14.2443 238.244 14.936 238.244C14.936 238.244 14.2925 236.957 16.5207 236.844C18.7488 236.739 17.9042 236.57 18.6442 235.597C19.3843 234.616 21.5078 234.994 21.5078 234.994C21.5078 234.994 20.9769 234.101 23.9451 233.353C26.9213 232.605 27.605 234.093 27.605 234.093C27.605 234.093 28.6024 232.725 29.8814 233.353C31.1604 233.98 31.4821 235.597 31.4821 235.597C31.4821 235.597 32.8576 234.238 34.2411 235.597L35.6166 236.957C35.6166 236.957 36.8875 237.005 37.9493 237.729C39.0111 238.445 38.7939 238.445 39.5902 238.445C40.0729 238.445 40.9496 238.171 41.8747 238.509Z" fill="white" fill-opacity="0.2"/>
  </g>
  <g opacity="0.1">
    <path d="M47.3928 239.611C47.3928 240.367 46.7734 240.986 46.0173 240.986H8.92743C8.17131 240.986 7.55194 240.367 7.55194 239.611C7.80934 239.45 8.10696 239.354 8.42871 239.354H46.7895C46.9987 239.354 47.1998 239.394 47.3767 239.466C47.3928 239.514 47.3928 239.563 47.3928 239.611Z" fill="white"/>
    <path d="M47.3928 239.611C47.3928 240.367 46.7734 240.986 46.0173 240.986H8.92743C8.17131 240.986 7.55194 240.367 7.55194 239.611C7.80934 239.45 8.10696 239.354 8.42871 239.354H46.7895C46.9987 239.354 47.1998 239.394 47.3767 239.466C47.3928 239.514 47.3928 239.563 47.3928 239.611Z" fill="white" fill-opacity="0.2"/>
  </g>
</svg>
