<svg xmlns="http://www.w3.org/2000/svg" width="25" height="25" viewBox="0 0 24 25" fill="none">
  <path d="M14 12.6514C14 13.7559 13.1046 14.6514 12 14.6514C10.8954 14.6514 10 13.7559 10 12.6514C10 11.5468 10.8954 10.6514 12 10.6514C13.1046 10.6514 14 11.5468 14 12.6514Z" fill="#0B1212"/>
  <path fill-rule="evenodd" clip-rule="evenodd" d="M12 3.65137C6.40848 3.65137 1.71018 7.47569 0.378052 12.6514C1.71018 17.8271 6.40848 21.6514 12 21.6514C17.5915 21.6514 22.2898 17.8271 23.6219 12.6514C22.2898 7.47569 17.5915 3.65137 12 3.65137ZM16 12.6514C16 14.8605 14.2091 16.6514 12 16.6514C9.79086 16.6514 8 14.8605 8 12.6514C8 10.4422 9.79086 8.65137 12 8.65137C14.2091 8.65137 16 10.4422 16 12.6514Z" fill="#0B1212"/>
</svg>