<svg width="89" height="40" viewBox="0 0 89 40" fill="none" xmlns="http://www.w3.org/2000/svg">
<g clip-path="url(#clip0_3244_12046)">
<path fill-rule="evenodd" clip-rule="evenodd" d="M5.67155 11.0485C7.23257 10.6597 8.92919 12.1475 9.46261 14.3692C9.99604 16.5928 9.16468 18.7091 7.60365 19.0979C6.04262 19.4866 4.34601 17.9988 3.81258 15.7771C3.27916 13.5536 4.11052 11.4372 5.67155 11.0485ZM12.838 4.41964C15.0502 4.12717 17.1696 6.44335 17.5728 9.59336C17.976 12.7452 16.5095 15.5373 14.2991 15.8298C12.0869 16.1223 9.96749 13.8061 9.5643 10.6561C9.16111 7.50607 10.6276 4.71393 12.838 4.41964ZM30.2787 11.0121C28.7177 10.6234 27.0211 12.1112 26.4876 14.3329C25.9542 16.5564 26.7856 18.6728 28.3466 19.0615C29.9058 19.4503 31.6042 17.9625 32.1377 15.7408C32.6711 13.5172 31.8397 11.4009 30.2787 11.0121ZM23.3406 4.78478C21.1284 4.49231 19.009 6.80849 18.6058 9.9585C18.2026 13.1085 19.6691 15.9006 21.8795 16.1949C24.0917 16.4874 26.2111 14.1712 26.6143 11.0212C27.0175 7.87121 25.551 5.07907 23.3406 4.78478ZM8.37792 27.2127C8.41539 26.982 8.38506 27.0674 8.27088 26.8167L8.08534 26.4824C7.8445 25.9701 7.70713 25.367 7.80168 25.1145L7.84093 25.0418C8.12637 25.1672 8.00863 25.5468 8.14778 25.7576C8.20487 25.8448 8.19417 25.7558 8.33332 26.0573C8.47426 26.3625 8.74722 27.0474 8.90956 27.2763C9.11473 27.5687 9.36271 27.6196 9.41266 27.3417C9.44656 27.1527 9.34308 26.962 9.19322 26.8657C9.22534 27.1237 9.30919 27.1309 9.30027 27.3798C9.04872 27.3907 9.00233 27.1455 8.87745 26.9129C8.7936 26.7567 8.68121 26.5442 8.58309 26.3353C8.48318 26.1227 8.40111 25.9629 8.29942 25.6885L8.07107 25.0418C7.92835 24.7875 7.60187 24.8656 7.62863 25.2725C7.66966 25.8793 7.94262 26.3934 8.20309 26.9257C8.25839 27.0401 8.28694 27.1437 8.37971 27.2109L8.37792 27.2127ZM22.9981 30.3899C22.9677 30.221 22.9909 30.2355 22.8803 30.1501C22.809 30.0956 22.8411 30.1356 22.7626 30.0902C22.5021 29.9412 22.8964 30.2628 22.6769 30.0284L22.8304 29.9394C23.1158 29.8304 22.8999 29.9358 23.1729 29.7178C23.3031 29.6142 23.3228 29.4489 23.2853 29.1928C23.1979 29.1092 23.0641 29.0257 22.9463 28.9784C22.7465 28.8985 22.7394 28.9893 22.5003 29.0275C22.5503 28.8622 22.784 28.7187 22.7233 28.5334C22.6698 28.3735 22.7751 28.4607 22.5984 28.4007C22.6377 28.7495 22.5503 28.8131 22.263 28.933C21.5102 29.2455 21.6404 29.1183 20.9411 29.2346C20.5682 29.2963 20.4576 29.2473 20.347 29.4562C20.7859 29.7469 22.643 28.8531 23.1961 29.2437C23.2478 30.0738 21.6832 29.9758 20.6307 30.2555C20.7002 30.33 20.7038 30.3681 20.966 30.3663C21.6868 30.3627 22.3897 29.983 22.8928 30.3155C22.9106 30.3282 22.9213 30.419 22.9606 30.3609C22.9677 30.3518 22.9838 30.3772 22.9963 30.3863L22.9981 30.3899ZM22.5984 28.4026C22.7751 28.4625 22.6698 28.3771 22.7233 28.5352C22.784 28.7187 22.5503 28.8622 22.5003 29.0293C22.7376 28.9911 22.7465 28.9003 22.9463 28.9802C23.0641 29.0275 23.1979 29.111 23.2853 29.1946C23.3228 29.4526 23.3031 29.6161 23.1729 29.7196C22.8999 29.9376 23.1158 29.8322 22.8304 29.9412L22.6769 30.0303C22.8964 30.2646 22.5039 29.9431 22.7626 30.092C22.8411 30.1374 22.809 30.0956 22.8803 30.152C22.9927 30.2373 22.9677 30.2228 22.9981 30.3918C22.9428 30.6225 22.8928 30.7696 22.4932 30.8877L20.7038 31.1166C20.1561 31.2201 19.9955 31.0621 19.9224 31.3655C20.2578 31.4944 20.9393 31.3001 21.6208 31.3055C21.958 31.3091 21.842 31.3219 22.0614 31.4309C22.0561 32.1757 21.2943 32.0394 20.4951 32.0594C17.6495 32.1303 16.977 31.8868 14.5774 30.5153C14.0868 30.2355 13.0681 29.4925 12.7238 29.1928C12.4634 28.9657 12.3046 28.9966 12.3188 28.4934C12.3278 28.1737 12.3617 27.7795 12.2778 27.4797C12.2332 27.3199 12.1619 27.1982 12.1476 27.0419C12.1297 26.8475 12.2814 25.2889 11.7819 25.6413C11.4786 25.8539 11.4714 26.8548 11.3091 27.1854C11.0326 27.1764 10.8773 26.8984 10.6722 26.5369L10.0174 25.3488C9.8212 24.9365 9.64815 24.0936 9.3966 24.139C8.92562 24.2244 9.58214 25.8557 9.7213 26.1409C9.7766 26.2553 9.91754 26.4824 9.92289 26.6059C9.92825 26.7404 9.92111 26.6532 9.90505 26.724L9.87116 26.8003C9.71595 26.7531 9.70703 26.6822 9.63031 26.5387C9.56609 26.4206 9.50543 26.3298 9.45369 26.239C8.9952 25.4542 8.88815 24.4678 8.67942 24.1263C8.37257 24.1045 8.28694 24.0027 8.35295 24.8456C8.38149 25.209 9.0951 26.793 9.19144 26.8693C9.34308 26.9638 9.44656 27.1546 9.41088 27.3453C9.36092 27.6214 9.11294 27.5706 8.90778 27.2799C8.74543 27.051 8.47248 26.3661 8.33154 26.061C8.19238 25.7594 8.20487 25.8484 8.146 25.7612C8.00684 25.5505 8.12637 25.1726 7.83914 25.0455L7.7999 25.1181C7.70713 25.3688 7.84271 25.9719 8.08356 26.486L8.2691 26.8203C8.38327 27.071 8.4136 26.9856 8.37614 27.2163C8.36722 27.4434 8.66515 27.6905 8.67407 28.1174C8.48853 28.0974 8.49567 28.0792 8.40825 27.9557L7.98008 27.2072C7.88553 27.0238 7.77314 26.8639 7.69999 26.7058C7.43417 26.1372 7.26825 26.3443 7.26112 26.6023C7.25577 26.7912 7.36459 27.0292 7.43952 27.1836C8.50816 29.3745 10.1495 30.8986 11.9603 32.4354C12.1476 32.5953 12.3331 32.7116 12.5008 32.8514C13.2715 33.4963 14.2046 33.8706 14.9075 34.3175C15.1786 34.49 16.6291 35.1331 16.9484 35.2348C18.3203 35.669 17.4319 35.8107 19.0518 35.2149C19.5246 35.0405 19.9545 34.8679 20.4041 34.6463C22.495 33.6217 23.3281 33.0912 25.1389 31.6434C25.799 31.1166 26.5197 30.3409 27.0621 29.6415C27.6472 28.8876 27.6187 28.8513 28.0415 28.1737C28.1111 28.0629 28.1468 28.0174 28.2217 27.8685C28.3234 27.6614 28.459 27.4452 28.5339 27.2236C28.7052 26.7167 28.9121 26.3026 29.0031 25.7194C29.0816 25.2144 29.1137 24.8148 29.0941 24.3152C29.0852 24.0936 29.0477 24.0845 29.0299 23.9173C28.9978 23.5904 28.9817 23.3142 28.8925 23.0308C28.8229 22.8074 28.7266 22.5385 28.6445 22.3024C28.5642 22.0735 28.4179 21.8882 28.3287 21.6666C28.12 21.1561 27.3101 20.1061 26.848 19.6992L26.0024 19.107C25.7794 18.9743 25.5439 18.8853 25.3191 18.7836C23.5939 18.0061 21.5762 18.5729 20.0794 19.5393C19.521 19.899 18.9323 20.3713 18.4916 20.8727C17.7905 21.672 18.2954 21.4613 16.9413 20.3295C16.5595 20.0098 16.1527 19.7319 15.7192 19.4685C15.3392 19.2378 14.713 18.9743 14.2652 18.8417C13.5712 18.6365 14.0458 18.7691 13.4018 18.6528C11.7729 18.3549 10.3404 18.9907 10.7453 21.0616C10.938 22.0499 11.5428 23.1071 12.1137 23.8792C13.0931 25.2071 14.1189 26.0046 15.4141 26.902C16.0421 27.3362 16.7771 27.7177 17.4658 28.032C17.8476 28.2064 17.844 28.0029 18.1437 27.8158C18.3846 27.6668 18.5683 27.5742 18.8163 27.4379C19.339 27.1509 19.628 26.5278 20.1044 26.7476C20.3934 26.8802 20.3702 27.2109 20.1811 27.4234C19.8689 27.7758 19.6994 27.7558 19.3997 28.21C19.3925 28.2209 19.3015 28.3826 19.3015 28.3844C19.2694 28.4879 19.2855 28.4098 19.2855 28.4934C19.2819 29.0547 22.0044 28.2391 22.3112 28.2718C22.4878 28.2918 22.4825 28.3626 22.6056 28.408L22.5984 28.4026ZM15.2393 0.0888382C13.9387 0.297749 12.4098 0.35588 11.0486 0.537542C8.72402 0.848182 5.62873 1.60753 3.43615 2.39594C2.13559 2.86281 1.26499 3.24974 0.637008 4.33426C-0.112285 5.63314 0.0375737 6.8539 0.0340056 8.48704C0.0268695 12.4672 -0.174726 19.0016 0.499638 22.4023C1.89832 29.4417 7.68393 34.8461 13.3589 37.9688C14.3937 38.5374 15.382 39.0933 16.4953 39.5711C18.1455 40.2778 18.67 40.0489 20.1757 39.3349C24.3182 37.373 28.1414 34.8624 31.0655 31.3273C34.2 27.5397 35.8859 23.3651 35.9412 17.0833C35.968 13.9242 35.9305 10.7469 35.9269 7.586C35.9216 4.16168 34.8904 3.30243 31.788 2.22154C28.2431 0.989878 23.7188 0.174219 19.835 0.0579558C18.7307 0.0252568 16.233 -0.0710237 15.2393 0.0888382Z" fill="#415CC4"/>
<path d="M46.2492 29.9523C47.0913 29.9523 47.7906 29.242 47.7906 28.3828V22.7458L53.496 16.9363C53.785 16.642 53.9527 16.2496 53.9527 15.8336C53.9527 14.9998 53.2301 14.264 52.4113 14.264C52.0027 14.264 51.6174 14.4348 51.3284 14.7291L46.2492 19.901L41.1701 14.7291C40.8811 14.4348 40.4957 14.264 40.0872 14.264C39.2683 14.264 38.5458 14.9998 38.5458 15.8336C38.5458 16.2496 38.7135 16.642 39.0025 16.9363L44.7078 22.7458V28.3828C44.7078 29.2402 45.4054 29.9523 46.2492 29.9523Z" fill="#415CC4"/>
<path d="M57.0319 23.6777C57.0319 21.9374 58.4038 20.5404 60.1129 20.5404C61.822 20.5404 63.1939 21.9374 63.1939 23.6777C63.1939 25.418 61.822 26.815 60.1129 26.815C58.4038 26.815 57.0319 25.418 57.0319 23.6777ZM53.7582 18.9709C53.7582 19.6812 54.1667 20.2952 54.7697 20.5895C54.2399 21.496 53.9509 22.5496 53.9509 23.6777V33.0896C53.9509 33.947 54.6484 34.6592 55.4923 34.6592C56.3361 34.6592 57.0337 33.9489 57.0337 33.0896V29.1185C57.9239 29.658 58.9836 29.9523 60.1147 29.9523C63.5079 29.9523 66.2767 27.1329 66.2767 23.6777C66.2767 20.2225 63.5079 17.4031 60.1147 17.4031C59.0068 17.4031 57.9721 17.7211 57.0569 18.237C56.7928 17.6248 56.1898 17.207 55.4923 17.207C54.5289 17.207 53.76 17.9917 53.76 18.9709H53.7582Z" fill="#415CC4"/>
<path d="M73.2077 20.5404C74.3388 20.5404 75.3504 21.1781 75.8802 22.11H70.5371C71.0669 21.1781 72.0535 20.5404 73.2095 20.5404M74.7509 29.9523C75.593 29.9523 76.2923 29.242 76.2923 28.3828C76.2923 27.5235 75.5948 26.8132 74.7509 26.8132H73.2095C72.0535 26.8132 71.0669 26.201 70.5371 25.2437H77.8302C78.6722 25.2437 79.3716 24.5334 79.3716 23.6741C79.3716 20.2189 76.6028 17.3995 73.2095 17.3995C69.8163 17.3995 67.0475 20.2189 67.0475 23.6741C67.0475 27.1293 69.8163 29.9487 73.2095 29.9487H74.7509V29.9523Z" fill="#415CC4"/>
<path d="M80.9112 17.4031C80.0691 17.4031 79.3698 18.1134 79.3698 18.9727C79.3698 19.832 80.0673 20.5423 80.9112 20.5423H82.0672V25.2491C82.0672 27.8469 84.1367 29.9559 86.6896 29.9559H87.4603C88.3024 29.9559 89.0017 29.2456 89.0017 28.3864C89.0017 27.5271 88.3042 26.8168 87.4603 26.8168H86.6896C85.8476 26.8168 85.1482 26.1065 85.1482 25.2473V20.5404H87.4586C88.3006 20.5404 89 19.8301 89 18.9709C89 18.1116 88.3024 17.4013 87.4586 17.4013H85.1482V15.8318C85.1482 14.9743 84.4507 14.2622 83.6068 14.2622C82.763 14.2622 82.0654 14.9725 82.0654 15.8318V17.4013H80.9094L80.9112 17.4031Z" fill="#415CC4"/>
</g>
<defs>
<clipPath id="clip0_3244_12046">
<rect width="89" height="40" fill="white"/>
</clipPath>
</defs>
</svg>
